<?xml version="1.0" standalone="no"?>
<!DOCTYPE svg PUBLIC "-//W3C//DTD SVG 1.1//EN" "http://www.w3.org/Graphics/SVG/1.1/DTD/svg11.dtd" >
<svg xmlns="http://www.w3.org/2000/svg" xmlns:xlink="http://www.w3.org/1999/xlink" version="1.1">
<metadata>
Created by FontForge 20170731 at Fri Mar  1 07:40:56 2013
 By Aleksey,,,
Copyright (c) 2011-12, vernon adams (vern@newtypography.co.uk), with Reserved Font Names 'Antonio'
</metadata>
<defs>
<font id="Antonio-Light" horiz-adv-x="817" >
  <font-face 
    font-family="Antonio"
    font-weight="300"
    font-stretch="ultra-condensed"
    units-per-em="2048"
    panose-1="2 0 3 3 0 0 0 0 0 0"
    ascent="1638"
    descent="-410"
    x-height="1500"
    cap-height="1760"
    bbox="-151 -612 2800 2342"
    underline-thickness="0"
    underline-position="0"
    unicode-range="U+0020-FB04"
  />
<missing-glyph horiz-adv-x="748" 
d="M68 0v1365h544v-1365h-544zM136 68h408v1229h-408v-1229z" />
    <glyph glyph-name=".notdef" horiz-adv-x="748" 
d="M68 0v1365h544v-1365h-544zM136 68h408v1229h-408v-1229z" />
    <glyph glyph-name=".null" horiz-adv-x="0" 
 />
    <glyph glyph-name="nonmarkingreturn" horiz-adv-x="682" 
 />
    <glyph glyph-name="space" unicode=" " horiz-adv-x="337" 
 />
    <glyph glyph-name="exclam" unicode="!" horiz-adv-x="540" 
d="M175 202h186v-202h-186v202zM176 1760h188l-65 -1392h-60z" />
    <glyph glyph-name="quotedbl" unicode="&#x22;" horiz-adv-x="944" 
d="M267 1761h156l-64 -636h-34zM535 1761h157l-65 -636h-34z" />
    <glyph glyph-name="numbersign" unicode="#" horiz-adv-x="1288" 
d="M713 765l53 270h-219l-54 -270h220zM909 1761h130l-123 -623h163v-97h-183l-54 -274h194v-97h-213l-133 -670h-129l130 670h-216l-131 -670h-129l132 670h-166v97h186l54 274h-197v97h216l123 623h130l-125 -623h216z" />
    <glyph glyph-name="dollar" unicode="$" horiz-adv-x="860" 
d="M120 1178q0 166 80 252q51 55 127 75v255h107v-244q129 -6 192 -114t63 -367v-80h-155v107q0 159 -27.5 238t-96 79t-104 -45.5t-35.5 -163.5q0 -175 163 -333l77 -75q199 -199 199 -439q0 -160 -65.5 -247.5t-189.5 -96.5v-250h-107v257q-92 20 -146 94q-73 101 -73 319
v6v129h153v-103q0 -317 138 -317q74 0 105 48t31 170q0 181 -156 340l-79 80q-201 204 -201 426z" />
    <glyph glyph-name="percent" unicode="%" horiz-adv-x="2148" 
d="M1821 835q0 123 -29 166.5t-108.5 43.5t-108 -43.5t-28.5 -166.5v-500q0 -128 28.5 -173t108.5 -45t108.5 45t28.5 173v500zM1399 763q0 293 89 365q65 52 196.5 52t195.5 -52q88 -73 88 -365v-352q0 -131 -12.5 -211.5t-46 -131t-86.5 -69.5t-139.5 -19t-139 19
t-86.5 69.5t-46.5 131t-12.5 211.5v352zM180 1364q0 294 88 366q64 52 195.5 52t196.5 -52q89 -72 89 -366v-352q0 -131 -12.5 -211.5t-46.5 -131t-86.5 -69.5t-139 -19t-139.5 19t-86.5 69.5t-46 131t-12.5 211.5v352zM601 1436q0 123 -28.5 166.5t-108 43.5t-108.5 -43.5
t-29 -166.5v-500q0 -128 28.5 -173t108.5 -45t108.5 45t28.5 173v500zM1372 1760h140l-722 -1760h-148z" />
    <glyph glyph-name="ampersand" unicode="&#x26;" horiz-adv-x="915" 
d="M321 1482l1 -41q0 -108 112 -384q77 96 118.5 188.5t41.5 206.5t-25 162.5t-118 48.5q-121 0 -128 -139q-1 -22 -1.5 -28.5t-0.5 -13.5zM751 365q142 -298 172 -365h-124q-26 62 -106 226q-50 -113 -103 -162t-105.5 -66.5t-120.5 -17.5q-136 0 -220 94t-84 258t33.5 243
t63.5 139t186 236q-167 374 -167 493q0 339 286 339q167 0 219.5 -88t52.5 -246t-69.5 -275.5t-174.5 -247.5q71 -164 191 -412q81 170 178 284l69 -107q-90 -112 -177 -325zM619 376q-146 294 -215 441q-84 -112 -138 -227t-55 -263q0 -222 171 -222q94 0 158 110
q32 57 79 161z" />
    <glyph glyph-name="quotesingle" unicode="'" horiz-adv-x="404" 
d="M124 1761h158l-65 -636h-33z" />
    <glyph glyph-name="parenleft" unicode="(" horiz-adv-x="519" 
d="M401 14h20v-113q-124 0 -169.5 21.5t-64 48t-36.5 90.5t-18 252v1075q0 188 18 252t36.5 90.5t64 48t169.5 21.5v-113h-9q-77 0 -86.5 -11t-19.5 -26q-24 -37 -24 -258v-1083q0 -221 24 -258q10 -15 20 -26t75 -11z" />
    <glyph glyph-name="parenright" unicode=")" horiz-adv-x="519" 
d="M98 1687v113q124 0 169.5 -21.5t64 -48t36.5 -90.5t18 -252v-1075q0 -188 -18 -252t-36.5 -90.5t-64 -48t-169.5 -21.5v113h9q77 0 87 11t20 26q23 36 23 241v17v1083v17q0 205 -23 241q-10 15 -20 26t-67 11h-29z" />
    <glyph glyph-name="asterisk" unicode="*" horiz-adv-x="960" 
d="M414 1777h133l-20 -268l224 172l68 -116l-250 -132l250 -140l-68 -117l-224 177l20 -272h-133l24 276l-222 -172l-67 118l242 130l-250 122l68 116l229 -163z" />
    <glyph glyph-name="plus" unicode="+" horiz-adv-x="808" 
d="M342 1208h118v-260h234v-106h-234v-266h-118v266h-230v106h230v260z" />
    <glyph glyph-name="comma" unicode="," horiz-adv-x="437" 
d="M151 173h200v-164l-104 -359h-77l96 350h-115v173z" />
    <glyph glyph-name="hyphen" unicode="-" horiz-adv-x="696" 
d="M88 958h428v-100h-428v100z" />
    <glyph glyph-name="period" unicode="." horiz-adv-x="532" 
d="M174 164h154v-164h-154v164z" />
    <glyph glyph-name="slash" unicode="/" horiz-adv-x="743" 
d="M538 1768h135l-451 -1768h-134z" />
    <glyph glyph-name="zero" unicode="0" horiz-adv-x="746" 
d="M540 1327q0 173 -40 251.5t-128 78.5t-126 -78t-38 -251v-858q0 -194 38 -281t126 -87t128 87t40 281v857zM60 1316q0 244 74 354.5t240 110.5t240.5 -110.5t74.5 -354.5v-841q0 -260 -75.5 -378t-240.5 -118t-239 118t-74 378v841z" />
    <glyph glyph-name="one" unicode="1" horiz-adv-x="569" 
d="M314 1761h89v-1761h-149v1534q-34 -41 -96 -63.5t-122 -22.5v93q85 12 161.5 69t116.5 151z" />
    <glyph glyph-name="two" unicode="2" horiz-adv-x="746" 
d="M118 1303q0 251 69 364t211.5 113t202 -111.5t59.5 -368.5t-116 -514q-50 -111 -104 -214q-136 -267 -169 -451h365v-121h-515v92v2q0 120 141 413q58 122 118 252q142 313 142 521.5t-30 291.5t-96.5 83t-96.5 -84.5t-30 -271.5v-234h-151v238z" />
    <glyph glyph-name="three" unicode="3" horiz-adv-x="746" 
d="M44 1321q0 234 69 346.5t233.5 112.5t239.5 -114t75 -345q0 -341 -175 -407q89 -40 133.5 -164t44.5 -282q0 -250 -77 -369t-242.5 -119t-236 119.5t-70.5 374.5v43h152v-43q0 -224 28.5 -297t126.5 -73t133.5 79.5t35.5 258t-23 262.5t-68.5 117t-122.5 33h-39v128h37
q91 0 128.5 25t52.5 63q32 80 32 218q0 241 -47 304t-108.5 63t-91.5 -25q-69 -58 -69 -312v-31h-151v34z" />
    <glyph glyph-name="four" unicode="4" horiz-adv-x="746" 
d="M449 468v960l-263 -960h263zM445 1761h144v-1293h154v-116h-154v-353h-140v353h-398v97z" />
    <glyph glyph-name="five" unicode="5" horiz-adv-x="746" 
d="M135 1760h460v-136h-325v-478q15 29 53.5 52t79 23t77.5 -11q78 -25 115.5 -126t37.5 -316v-291q0 -231 -25 -318t-56 -119q-58 -60 -175 -60q-266 0 -266 311v168h152v-196q0 -161 114.5 -161t114.5 172v595q0 116 -25.5 169t-82.5 53t-91 -51.5t-34 -151.5l-124 22v850
z" />
    <glyph glyph-name="six" unicode="6" horiz-adv-x="746" 
d="M544 547q0 250 -28 340.5t-107.5 90.5t-126 -25.5t-49.5 -26.5v-422q0 -242 24.5 -307t70.5 -81q26 -9 76 -9t81.5 28t45 99t13.5 212v101zM233 1013q66 89 178 89q156 0 219.5 -118t63.5 -425v-117q0 -230 -63 -346t-235 -116t-241.5 116.5t-69.5 409.5v758
q0 222 26.5 311t60.5 127q71 78 210.5 78t207 -81.5t70.5 -414.5v-32h-152v31q0 236 -19.5 294.5t-56.5 70.5q-20 6 -56 7q-110 0 -129 -124q-14 -86 -14 -276v-242z" />
    <glyph glyph-name="seven" unicode="7" horiz-adv-x="746" 
d="M56 1761h633v-107q0 1 -3 1t-49.5 -147.5t-93.5 -332.5q-155 -615 -191 -1174h-155q49 618 198 1164q82 285 143 427l21 52h-503v117z" />
    <glyph glyph-name="eight" unicode="8" horiz-adv-x="746" 
d="M494 1070q35 88 35 264.5t-35 247.5t-111.5 71t-110.5 -72.5t-34 -248.5t34 -263t110.5 -87t111.5 88zM380 869q-160 0 -160 -405q0 -206 39.5 -283.5t121 -77.5t117 80t35.5 281t-35.5 303t-117.5 102zM72 403l-1 31q0 204 36.5 321t118.5 172q-72 51 -104.5 150.5
t-32.5 298t70.5 301.5t225 103t224 -103t69.5 -299.5t-34.5 -295t-111.5 -151.5q79 -57 114.5 -175t35.5 -322v-21q-5 -227 -76.5 -330t-225.5 -103t-227.5 100.5t-80.5 322.5z" />
    <glyph glyph-name="nine" unicode="9" horiz-adv-x="746" 
d="M522 1255q0 229 -22.5 299t-63.5 88q-24 10 -56 11q-68 0 -98 -48.5t-37.5 -131.5t-7.5 -216v-49q0 -266 23 -337t68 -87q24 -8 79 -8t115 27v452zM87 1252q0 216 14.5 275.5t32.5 111.5t79 96.5t180.5 44.5t189.5 -78t83 -259q6 -81 6 -189v-712q0 -277 -29.5 -377
t-88 -142.5t-141 -42.5t-128.5 20q-91 39 -124.5 159.5t-33.5 348.5h143v-25q3 -254 23.5 -309t63.5 -66q20 -5 52 -5q71 0 92 55t21 213v341q-51 -50 -136.5 -50t-136.5 24q-99 48 -130.5 179t-31.5 361v26z" />
    <glyph glyph-name="colon" unicode=":" horiz-adv-x="555" 
d="M179 1279h183v-231h-183v231zM179 543h183v-231h-183v231z" />
    <glyph glyph-name="semicolon" unicode=";" horiz-adv-x="561" 
d="M181 523h200v-164l-104 -359h-77l96 350h-115v173zM179 1279h183v-231h-183v231z" />
    <glyph glyph-name="less" unicode="&#x3c;" horiz-adv-x="730" 
d="M63 823l579 396v-168l-468 -293l468 -310v-160l-579 400v135z" />
    <glyph glyph-name="equal" unicode="=" horiz-adv-x="722" 
d="M104 733h514v-132h-514v132zM104 1025h514v-133h-514v133z" />
    <glyph glyph-name="greater" unicode="&#x3e;" horiz-adv-x="730" 
d="M84 1059v160l579 -401v-134l-579 -396v168l468 293z" />
    <glyph glyph-name="question" unicode="?" horiz-adv-x="708" 
d="M227 299h126v-298h-126v298zM158 1365l-1 111v7q0 132 35 195q59 104 176 104t149.5 -26.5t49.5 -43.5q56 -56 56 -329v-69q0 -266 -58.5 -393.5t-211.5 -170.5v-256h-125v316q85 32 156 90q36 30 70 135q20 60 20 336v8q0 177 -11.5 226.5t-70 49.5t-71.5 -50t-13 -230
v-215h-150v205z" />
    <glyph glyph-name="at" unicode="@" horiz-adv-x="1325" 
d="M847 1062q-94 133 -194 133q-76 0 -123.5 -93t-47.5 -283.5t47 -268t131 -77.5t135.5 80.5t51.5 205.5v303zM1029 494q93 0 93 372q0 250 -12 348q-57 448 -384 448q-239 0 -357 -152q-152 -196 -152 -666q0 -562 192 -712q93 -72 219 -72t221 28l17 -112
q-140 -29 -218 -29q-557 0 -557 889v5q0 538 199 767q149 173 425 173h3q523 0 523 -871q0 -379 -115 -491q-42 -41 -97.5 -41t-98.5 66t-56 141q-17 -97 -75.5 -160.5t-123.5 -63.5q-124 0 -212 101.5t-88 332.5t64 359.5t185 128.5q84 0 145 -44.5t86 -102.5l30 122h72
v-569q0 -99 16 -147t56 -48z" />
    <glyph glyph-name="A" unicode="A" horiz-adv-x="860" 
d="M339 1760h152l313 -1760h-144l-58 357h-352l-53 -357h-141zM582 480l-162 996h-2l-149 -996h313z" />
    <glyph glyph-name="B" unicode="B" horiz-adv-x="885" 
d="M421 1629h-112v-625h134q69 0 92.5 15t32.5 35q28 63 28 247.5t-18.5 234.5t-49.5 71.5t-107 21.5zM470 884h-161v-756h158q73 0 107 48t40 150t6 174v83q0 148 -30.5 224.5t-119.5 76.5zM160 1760h257q158 0 229.5 -54t89.5 -190q8 -60 9 -150v-23q0 -171 -22 -261
t-91 -135q78 -38 107.5 -149.5t29.5 -279.5v-31q-4 -257 -66 -372t-241 -115h-302v1760z" />
    <glyph glyph-name="C" unicode="C" horiz-adv-x="865" 
d="M134 1251q0 320 80.5 425.5t229 105.5t212.5 -73q46 -53 60 -105q33 -122 33 -365v-152h-151v170q0 222 -24 297t-68 95q-24 11 -55 11q-95 0 -131.5 -97t-36.5 -305v-706q0 -255 32 -352.5t128 -97.5t125.5 97t29.5 352v141h150v-140q0 -231 -26 -332.5t-59 -145.5
q-70 -94 -217 -94t-221 93q-91 114 -91 477v701z" />
    <glyph glyph-name="D" unicode="D" horiz-adv-x="903" 
d="M621 1274q0 192 -44 277t-138 85h-132v-1508h123q124 0 162 113q30 93 30 278zM159 1760h271q237 0 302 -194q38 -113 38 -308l1 -754q0 -275 -78 -389.5t-269 -114.5h-265v1760z" />
    <glyph glyph-name="E" unicode="E" horiz-adv-x="709" 
d="M160 1760h465v-116h-316v-688h297v-121h-297v-717h313v-118h-462v1760z" />
    <glyph glyph-name="F" unicode="F" horiz-adv-x="690" 
d="M160 1760h462v-116h-314v-639h297v-119h-297v-886h-148v1760z" />
    <glyph glyph-name="G" unicode="G" horiz-adv-x="889" 
d="M134 1245q0 273 54 380q78 157 257 157q115 0 176 -45t79 -98q34 -99 40.5 -188.5t6.5 -203.5v-147h-152v272q0 150 -30 219t-119.5 69t-126 -89.5t-36.5 -309.5v-718q0 -249 32 -345t126 -96t126 97t32 342v222h-151v127h299v-890h-98l-16 102q-37 -62 -87 -92t-129 -30
q-148 0 -215.5 129.5t-67.5 422.5v713z" />
    <glyph glyph-name="H" unicode="H" horiz-adv-x="940" 
d="M631 1760h149v-1760h-149v886h-322v-886h-149v1760h149v-762h322v762z" />
    <glyph glyph-name="I" unicode="I" horiz-adv-x="504" 
d="M178 1760h149v-1760h-149v1760z" />
    <glyph glyph-name="J" unicode="J" horiz-adv-x="798" 
d="M497 1760h149v-1340q0 -230 -62.5 -335.5t-213.5 -105.5t-213.5 97.5t-62.5 312.5v151h151v-209q0 -139 29 -177.5t51.5 -44.5t49.5 -6q106 0 117 139q5 56 5 107v1411z" />
    <glyph glyph-name="K" unicode="K" horiz-adv-x="827" 
d="M664 1760h144l-362 -869l385 -891h-154l-366 860v-860h-151v1760h149v-867z" />
    <glyph glyph-name="L" unicode="L" horiz-adv-x="639" 
d="M160 1760h149v-1642h312v-118h-461v1760z" />
    <glyph glyph-name="M" unicode="M" horiz-adv-x="1198" 
d="M871 1760h167v-1760h-135v754l23 709l-251 -1425h-142l-260 1425l23 -709v-754h-136v1760h167l277 -1478z" />
    <glyph glyph-name="N" unicode="N" horiz-adv-x="971" 
d="M681 1760h130v-1760h-116l-405 1326l10 -476v-850h-140v1760h104l432 -1361l-15 606v755z" />
    <glyph glyph-name="O" unicode="O" horiz-adv-x="887" 
d="M604 1280q0 210 -30.5 295t-124.5 85t-130 -87.5t-36 -291.5v-762q0 -243 25 -311t55.5 -87t80.5 -19t80 19t55 86.5t25 311.5v761zM134 1268q0 319 80 416.5t246 97.5t229 -108q42 -73 53 -170t11 -236v-749q0 -229 -27.5 -322.5t-61.5 -133.5q-72 -83 -219 -83
q-219 0 -274 189q-37 124 -37 350v749z" />
    <glyph glyph-name="P" unicode="P" horiz-adv-x="843" 
d="M622 1229v47q0 194 -29.5 277t-118.5 83h-165v-821h158q92 0 123.5 87.5t31.5 326.5zM160 1760h306q108 0 170.5 -40.5t83.5 -90.5q36 -90 43.5 -175t7.5 -205v-18q0 -229 -28.5 -323t-64.5 -135q-73 -84 -221 -84h-148v-689h-149v1760z" />
    <glyph glyph-name="Q" unicode="Q" horiz-adv-x="887" 
d="M134 1268q0 319 80 416.5t252 97.5q197 0 256 -180q31 -94 31 -334v-749q0 -229 -36 -352q-42 -143 -179 -177l182 -327l-98 -52l-212 370q-119 9 -184 82q-36 40 -64 135t-28 321v749zM604 1280q0 210 -30.5 295t-124.5 85t-130 -87.5t-36 -291.5v-762q0 -243 25 -311
t55.5 -87t80.5 -19t80 19t55 86.5t25 311.5v761z" />
    <glyph glyph-name="R" unicode="R" horiz-adv-x="903" 
d="M623 1335q0 133 -12.5 195t-42 84t-93.5 22h-167v-668h156q76 0 103.5 26t41.5 86.5t14 241.5v13zM160 1760h299q181 0 242 -76q46 -57 58.5 -139.5t12.5 -239.5t-36.5 -256.5t-125.5 -123.5q35 -6 59 -21.5t43 -52.5q59 -115 59 -566q0 -187 3.5 -215.5t18.5 -69.5h-148
q-16 30 -19 113.5t-3 266.5v194q0 184 -22.5 234t-133.5 50l-158 10v-868h-149v1760z" />
    <glyph glyph-name="S" unicode="S" horiz-adv-x="795" 
d="M98 1490q15 143 84.5 217.5t217.5 74.5t206 -74q32 -40 50 -80q38 -81 39 -386v-99h-153v110q0 232 -15 281t-31 74q-29 46 -104 46q-152 0 -152 -283q0 -99 19 -134.5t28.5 -55.5t127.5 -138l96 -97q213 -219 213 -502.5t-81.5 -373.5t-241.5 -90q-246 0 -283 297
q-13 100 -13 246v183h152v-180q0 -238 31.5 -328t128.5 -90t123.5 58.5t29 141.5t2.5 178q0 196 -155 347l-102 97q-134 131 -179 220.5t-45 182t7 157.5z" />
    <glyph glyph-name="T" unicode="T" horiz-adv-x="577" 
d="M40 1760h497v-116h-165v-1644h-148v1644h-184v116z" />
    <glyph glyph-name="U" unicode="U" horiz-adv-x="911" 
d="M616 1760h149v-1308q0 -248 -63 -360.5t-245 -112.5t-246.5 113t-64.5 360v1308h149v-1303q0 -183 16 -244q30 -111 140 -111q90 0 127.5 51.5t37.5 302.5v1304z" />
    <glyph glyph-name="V" unicode="V" horiz-adv-x="878" 
d="M672 1760h143l-284 -1760h-155l-313 1760h143l246 -1442h1z" />
    <glyph glyph-name="W" unicode="W" horiz-adv-x="1338" 
d="M1127 1760h141l-213 -1760h-147l-218 1448l-234 -1448h-137l-249 1760h146l184 -1438l220 1438h124l235 -1438z" />
    <glyph glyph-name="X" unicode="X" horiz-adv-x="754" 
d="M459 853l219 -853h-133l-176 680l-171 -680h-124l233 919l-218 841h137l169 -659l162 659h124z" />
    <glyph glyph-name="Y" unicode="Y" horiz-adv-x="802" 
d="M624 1760h154l-287 -987v-773h-149v772l-318 988h150l241 -778h3z" />
    <glyph glyph-name="Z" unicode="Z" horiz-adv-x="691" 
d="M121 1760h482v-102l-341 -1540h335v-118h-485v125l339 1519h-330v116z" />
    <glyph glyph-name="bracketleft" unicode="[" horiz-adv-x="764" 
d="M253 1761h363v-115h-214v-1531h214v-115h-363v1761z" />
    <glyph glyph-name="backslash" unicode="\" horiz-adv-x="868" 
d="M133 1761h128l410 -1761h-127z" />
    <glyph glyph-name="bracketright" unicode="]" horiz-adv-x="764" 
d="M196 1761h362v-1761h-362v115h213v1531h-213v115z" />
    <glyph glyph-name="asciicircum" unicode="^" horiz-adv-x="1030" 
d="M411 1500h206l241 -923h-149l-194 811l-194 -811h-151z" />
    <glyph glyph-name="underscore" unicode="_" horiz-adv-x="748" 
d="M48 -64h651v-121h-651v121z" />
    <glyph glyph-name="grave" unicode="`" horiz-adv-x="650" 
d="M136 14v160l332 -185v-69z" />
    <glyph glyph-name="a" unicode="a" horiz-adv-x="874" 
d="M162 1051q0 163 9 210.5t19.5 83t25 58.5t36 47t49.5 37.5t65.5 22t83.5 8.5t83 -8t65 -18t48.5 -35.5t34.5 -44.5q48 -65 48 -369v-1043h-149v112q-13 -40 -64.5 -81.5t-132.5 -41.5q-118 0 -178.5 99.5t-60.5 288.5v192q0 103 49.5 160t85.5 80q95 60 191 100.5
t110 46.5v168q0 145 -11 171t-18 42q-22 50 -106 50t-108.5 -70.5t-24.5 -268.5v-37h-150v40zM580 837q-165 -75 -190.5 -94t-45.5 -39q-52 -52 -52 -195v-119q0 -155 24 -216t86 -61t110 31t68 67v626z" />
    <glyph glyph-name="b" unicode="b" horiz-adv-x="876" 
d="M597 1061q0 176 -15 219.5t-29 64.5q-27 41 -72 41t-67 -6q-54 -15 -79.5 -85.5t-25.5 -235.5v-599q0 -189 30.5 -267t115.5 -78t113.5 78.5t28.5 272.5v595zM160 1783h149v-411q11 60 64 103.5t115 43.5q179 0 228 -194q30 -124 30 -313v-522q0 -257 -39 -356.5
t-107 -127.5q-38 -16 -90 -17q-147 0 -201 125v-114h-149v1783z" />
    <glyph glyph-name="c" unicode="c" horiz-adv-x="791" 
d="M128 1028q0 250 50 348t134 126q49 16 133 16t154 -46q45 -30 73 -115t28 -337v-47h-151v92q0 174 -12 226q-22 90 -111 90q-109 0 -135 -126q-14 -68 -14 -198v-602q0 -203 15.5 -241.5t31.5 -58.5q28 -36 100.5 -36t97.5 63.5t26 138.5t1 128v113h151v-45
q0 -225 -15 -308q-39 -227 -253 -227q-182 0 -242 112q-41 75 -51.5 171t-10.5 246v517z" />
    <glyph glyph-name="d" unicode="d" horiz-adv-x="872" 
d="M567 1037q0 193 -29.5 270.5t-114.5 77.5t-114 -79.5t-29 -275.5v-594q0 -206 32.5 -264t96.5 -58t91.5 23.5t47 79t19.5 217.5v603zM566 1783h150v-1783h-150v114q-52 -125 -199 -125q-167 1 -212 199q-25 109 -25 293v527q0 302 72.5 406t204.5 104q51 0 94.5 -36.5
t64.5 -88.5v390z" />
    <glyph glyph-name="e" unicode="e" 
d="M549 877v201q0 169 -13 221q-22 88 -110 88q-118 0 -140 -155q-9 -63 -9 -154v-18v-183h272zM128 1014q0 262 48 360q50 98 134 127q50 17 115.5 17t113.5 -16q73 -24 123 -131q36 -75 36 -369v-250h-421v-302q0 -232 34.5 -284.5t102 -52.5t95 42t34 108.5t6.5 180.5
v112h145v-49q0 -222 -15 -304q-38 -221 -247 -221q-182 0 -242 112q-41 74 -51.5 169t-10.5 248v503z" />
    <glyph glyph-name="f" unicode="f" horiz-adv-x="610" 
d="M224 1512q0 138 49 207.5t165 69.5q81 0 135 -18v-121q-45 7 -101 7t-77 -29.5t-21 -93.5v-92h199v-113h-199v-1329h-150v1329h-140v113h140v70z" />
    <glyph glyph-name="g" unicode="g" horiz-adv-x="860" 
d="M563 1050q0 225 -35.5 281t-108 56t-104 -54t-36 -134t-4.5 -147v-441q0 -193 33.5 -274.5t125.5 -81.5q48 1 74 27q55 56 55 332v436zM190.5 1376.5q64.5 141.5 198.5 141.5t174 -106v88h149v-1403q0 -223 -166 -301q-65 -31 -136 -31t-148.5 24t-129.5 64l57 115
q98 -73 220 -73q77 0 115.5 50.5t38.5 134.5v165q-30 -67 -75.5 -92.5t-107.5 -25.5q-172 0 -223 194q-31 122 -31 311v381q0 222 64.5 363.5z" />
    <glyph glyph-name="h" unicode="h" horiz-adv-x="923" 
d="M502 1381q-192 0 -193 -190v-1191h-149v1783h149v-430q20 67 89.5 116.5t162.5 49.5t152.5 -77t59.5 -231v-1211h-150v1201q0 102 -35.5 141t-85.5 39z" />
    <glyph glyph-name="i" unicode="i" horiz-adv-x="474" 
d="M162 1500h150v-1500h-150v1500zM162 1782h149v-144h-149v144z" />
    <glyph glyph-name="j" unicode="j" horiz-adv-x="504" 
d="M195 1782h149v-144h-149v144zM292 -185q-22 -18 -45 -28.5t-75 -10.5t-82 6h-4v108q20 -4 38 -4t34 3q36 6 36 67v1544h149v-1534q-1 -111 -51 -151z" />
    <glyph glyph-name="k" unicode="k" horiz-adv-x="799" 
d="M161 1783h149v-1023l331 740h149l-341 -744l359 -756h-156l-342 742v-742h-149v1783z" />
    <glyph glyph-name="l" unicode="l" horiz-adv-x="470" 
d="M160 1783h150v-1783h-150v1783z" />
    <glyph glyph-name="m" unicode="m" horiz-adv-x="1362" 
d="M1062 1226q0 155 -137 155q-115 0 -147 -67q-14 -30 -18 -75v-1239h-149v1226q0 86 -35.5 120.5t-108 34.5t-115.5 -43.5t-43 -128.5v-1209h-149v1500h149v-149q20 68 83.5 118t145.5 50q150 0 201 -152q37 68 105 110t158 42t150 -75t60 -227v-1217h-150v1226z" />
    <glyph glyph-name="n" unicode="n" horiz-adv-x="922" 
d="M309 1353q20 67 88.5 116.5t161.5 49.5t153 -77t60 -231v-1211h-149v1223q0 87 -39.5 125.5t-105.5 38.5q-169 0 -169 -167v-1220h-149v1500h149v-147z" />
    <glyph glyph-name="o" unicode="o" horiz-adv-x="845" 
d="M568 1053q0 258 -68 311q-30 23 -72 23q-114 0 -136 -127q-15 -79 -15 -207v-590q0 -221 37.5 -285.5t119.5 -64.5t108 91.5t26 258.5v590zM128 1018q0 260 49 358t133 126q50 16 112 16q253 0 284 -275q11 -94 11 -225v-503q0 -177 -7.5 -229t-14.5 -90
q-40 -214 -278 -214q-97 0 -155 40q-110 76 -127 279q-7 90 -7 214v503z" />
    <glyph glyph-name="p" unicode="p" horiz-adv-x="873" 
d="M596 1061q0 176 -14.5 219.5t-34.5 74.5t-66 31t-68 -6q-54 -15 -79 -86.5t-25 -234.5v-596q0 -191 30.5 -269.5t115.5 -78.5t113 78t28 275v593zM309 1385q53 126 199 126q102 0 153.5 -67.5t67.5 -174t16 -256.5v-538v-7q0 -283 -74 -384.5t-202 -101.5
q-51 0 -95.5 36.5t-64.5 89.5v-373h-149v1765h149v-115z" />
    <glyph glyph-name="q" unicode="q" horiz-adv-x="858" 
d="M564 1037q0 232 -39.5 290t-116 58t-104.5 -78.5t-28 -275.5v-594q0 -208 32 -265.5t96.5 -57.5t92 25t47.5 81t20 221v596zM128 1013q0 255 40 353q38 98 106 128q38 16 90 17q147 0 201 -130v119h150v-1765h-150v371q-22 -53 -66 -88.5t-110.5 -35.5t-122.5 37
q-138 91 -138 460v534z" />
    <glyph glyph-name="r" unicode="r" horiz-adv-x="617" 
d="M565 1518q4 0 4 -32t-1 -64v-31q-79 0 -139.5 -31.5t-118.5 -113.5v-1246h-149v1500h149v-167q26 88 91.5 136.5t163.5 48.5z" />
    <glyph glyph-name="s" unicode="s" 
d="M120 1180q0 166 79.5 252t219.5 86t205 -111t65 -370v-80h-155v107q0 159 -27.5 238t-96 79t-104 -45.5t-35.5 -157.5v-6q0 -175 163 -333l77 -75q199 -199 199 -439q0 -160 -69 -252.5t-217 -92.5t-221.5 102t-73.5 325v129h153v-103q0 -317 138 -317q74 0 105 48
t31 170q0 181 -156 340l-79 80q-201 204 -201 426z" />
    <glyph glyph-name="t" unicode="t" horiz-adv-x="582" 
d="M195 1760h150v-254h177v-116h-177v-1181q0 -45 11 -62t41 -23t124 -6v-127h-104q-142 0 -183 50q-24 29 -31.5 68.5t-7.5 107.5v1173h-150v116h150v254z" />
    <glyph glyph-name="u" unicode="u" horiz-adv-x="924" 
d="M300 292q0 -173 152 -173q74 0 118.5 49.5t44.5 134.5l-1 1197h150v-1500h-149v150q-19 -68 -81.5 -119t-144.5 -51t-160 67.5t-78 237.5v1215h149v-1208z" />
    <glyph glyph-name="v" unicode="v" horiz-adv-x="677" 
d="M497 1500h134l-218 -1500h-149l-219 1500h134l118 -876l40 -365h10l40 366z" />
    <glyph glyph-name="w" unicode="w" horiz-adv-x="1075" 
d="M885 1500h132l-174 -1500h-148l-147 1283l-173 -1283h-142l-176 1500h137l90 -887l24 -311h12l30 312l126 886h127l137 -854l40 -344h10l20 346z" />
    <glyph glyph-name="x" unicode="x" horiz-adv-x="670" 
d="M401 779l236 -779h-139l-171 574l-161 -574h-132l237 762l-219 738h130l160 -527l149 527h142z" />
    <glyph glyph-name="y" unicode="y" horiz-adv-x="733" 
d="M541 1500h149l-239 -1497q-23 -154 -53 -191t-67.5 -43.5t-76.5 -6.5h-124v128h55q107 0 123 11q14 14 14 40t-3 44t-8 53l-250 1462h150l119 -793l48 -408h13l43 408z" />
    <glyph glyph-name="z" unicode="z" horiz-adv-x="635" 
d="M107 1500h463v-93l-334 -1277h314v-130h-468v108l329 1263h-304v129z" />
    <glyph glyph-name="braceleft" unicode="{" horiz-adv-x="798" 
d="M562 1781h60v-137q-70 0 -94.5 -15t-34.5 -53t-10 -146v-246q0 -205 -24.5 -256.5t-80.5 -75.5q-24 -10 -67 -22q79 -23 107 -47q27 -25 37 -45q28 -57 28 -262v-246q0 -172 34.5 -193t104.5 -21v-137h-60q-134 0 -181 70.5t-47 267.5v275q0 160 -21 194.5t-53 38.5
t-65 4v202q92 0 113 34.5t23.5 90t2.5 112.5v275q0 197 47 267.5t181 70.5z" />
    <glyph glyph-name="bar" unicode="|" horiz-adv-x="537" 
d="M199 1683h153v-1767h-153v1767z" />
    <glyph glyph-name="braceright" unicode="}" horiz-adv-x="798" 
d="M195 1781h60q134 0 181 -70.5t47 -267.5v-275q0 -160 21 -194.5t53 -38.5t65 -4v-202q-92 0 -113 -34.5t-23.5 -90t-2.5 -112.5v-275q0 -197 -47 -267.5t-181 -70.5h-60v137q50 0 74.5 5.5t40.5 30t20 63t4 115.5v246q0 205 25 256.5t81 75.5q24 10 66 22
q-115 33 -143.5 91t-28.5 263v246q0 77 -4 115.5t-20 63t-40.5 30t-74.5 5.5v137z" />
    <glyph glyph-name="asciitilde" unicode="~" horiz-adv-x="1117" 
d="M978 1098q-62 -245 -206 -245q-68 0 -222 40t-207.5 40t-93.5 -93l-128 75q78 186 214 186q57 0 215 -39.5t185 -39.5q67 9 100 118z" />
    <glyph glyph-name="uni00A0" unicode="&#xa0;" horiz-adv-x="337" 
 />
    <glyph glyph-name="exclamdown" unicode="&#xa1;" horiz-adv-x="564" 
d="M405 1351h-186v202h186v-202zM404 -207h-188l65 1392h60z" />
    <glyph glyph-name="cent" unicode="&#xa2;" horiz-adv-x="788" 
d="M128 1028q0 143 18 248q36 207 217 236v256h113v-252q66 -7 117.5 -40t90.5 -153q16 -51 16 -303v-47h-151v92q0 174 -12 226q-22 90 -104 90t-119 -59.5t-37 -264.5v-602q0 -118 7.5 -188.5t37 -109t105.5 -38.5q85 0 109 107q13 59 13 223v113h151v-45q0 -225 -15 -308
q-26 -151 -125 -199q-34 -17 -84 -24v-235h-113v234q-67 8 -121.5 47t-84 135t-29.5 344v517z" />
    <glyph glyph-name="sterling" unicode="&#xa3;" horiz-adv-x="809" 
d="M162 1386q0 396 311 396q222 0 283 -233q19 -73 19 -168v-135h-133v147q0 263 -178 263q-164 0 -164 -247q0 -172 78 -473h306v-103h-286q17 -133 17 -250q0 -331 -138 -476h489v-107h-704v86q122 53 170 176.5t48 370.5q0 102 -19 200h-183v103h155q-71 266 -71 450z
" />
    <glyph glyph-name="currency" unicode="&#xa4;" horiz-adv-x="1159" 
d="M794 1042.5q82 91.5 82 227.5t-81 224t-214.5 88t-215.5 -90.5t-82 -225t81.5 -225t214.5 -90.5t215 91.5zM797 1634l87 87l150 -149l-90 -90q54 -97 54 -215.5t-54 -215.5l90 -90l-150 -149l-89 88q-92 -52 -216 -52t-216 53l-89 -89l-149 150l91 91q-53 98 -53 214.5
t52 213.5l-90 90l149 150l87 -88q97 55 218 55t218 -54z" />
    <glyph glyph-name="yen" unicode="&#xa5;" horiz-adv-x="821" 
d="M624 1760h154l-272 -936h247v-83h-262v-197h262v-82h-262v-462h-149v462h-265v82h265v197h-265v83h248l-301 936h150l241 -778h3z" />
    <glyph glyph-name="brokenbar" unicode="&#xa6;" horiz-adv-x="530" 
d="M122 724h153v-808h-153v808zM122 1761h153v-830h-153v830z" />
    <glyph glyph-name="section" unicode="&#xa7;" 
d="M585 682q7 21 7 68t-14 83t-41 72.5t-54 67t-67.5 75t-66.5 77.5q-13 -32 -13 -81.5t13 -83.5t41.5 -70t53.5 -63t70 -72t71 -73zM274 1227q-73 117 -73 216q0 163 76.5 250.5t192.5 87.5t178 -47q122 -92 122 -434v-80h-155v107q0 165 -30 242t-110 77q-55 0 -89 -48
t-34 -124t54.5 -154t127 -161.5t129 -183t56.5 -212.5t-36 -193q108 -137 108 -245q0 -160 -69 -252.5t-217 -92.5t-221.5 102t-73.5 325v129h153v-103q0 -317 138 -317q76 0 106 39t30 145t-85 202q-38 42 -120.5 122t-138.5 150q-85 106 -85 228.5t66 224.5z" />
    <glyph glyph-name="dieresis" unicode="&#xa8;" horiz-adv-x="976" 
d="M155 95h182v-133h-182v133zM585 95h182v-133h-182v133z" />
    <glyph glyph-name="copyright" unicode="&#xa9;" horiz-adv-x="1466" 
d="M1309 862q0 162 -75.5 298t-208 214.5t-292.5 78.5t-292.5 -78.5t-208 -214.5t-75.5 -298t75.5 -298t208 -214.5t292.5 -78.5t292.5 78.5t208 214.5t75.5 298zM509 1049q0 256 219 256t219 -196v-133h-97v81q0 86 -24.5 121.5t-92 35.5t-92.5 -36t-25 -108v-417
q0 -71 27.5 -108t92.5 -37t89.5 33t24.5 112v109h101v-123q0 -113 -48.5 -164t-166.5 -51q-227 0 -227 224v401zM76 862q0 184 86 334.5t236.5 236.5t334.5 86t334.5 -86t236.5 -236.5t86 -334.5t-86 -334.5t-236.5 -236.5t-334.5 -86t-334.5 86t-236.5 236.5t-86 334.5z
" />
    <glyph glyph-name="ordfeminine" unicode="&#xaa;" horiz-adv-x="927" 
d="M247 1200l1 33q0 165 15 211q31 95 80.5 129.5t120.5 34.5t110 -10q59 -16 102 -98q28 -53 28 -246v-865h-120v92q-12 -35 -52.5 -68.5t-106.5 -33.5q-191 0 -191 313v153q0 91 54 146.5t128.5 90.5t114.5 52t53 23v92q0 161 -10.5 187.5t-26.5 46.5t-77.5 20t-81.5 -57
t-20 -216v-30h-121zM584 558v505q-161 -72 -193 -109t-35.5 -75.5t-3.5 -79.5v-97q0 -125 19.5 -174t69 -49t88 25.5t55.5 53.5z" />
    <glyph glyph-name="guillemotleft" unicode="&#xab;" horiz-adv-x="1304" 
d="M76 794l466 271v-150l-312 -166l312 -175v-160l-466 285v95zM599 794l466 271v-150l-312 -166l312 -175v-160l-466 285v95z" />
    <glyph glyph-name="logicalnot" unicode="&#xac;" horiz-adv-x="947" 
d="M97 858h729v-419h-125v304h-604v115z" />
    <glyph glyph-name="uni00AD" unicode="&#xad;" horiz-adv-x="696" 
d="M90 741h516v-115h-516v115z" />
    <glyph glyph-name="registered" unicode="&#xae;" horiz-adv-x="1502" 
d="M1309 862q0 162 -75.5 298t-208 214.5t-292.5 78.5t-292.5 -78.5t-208 -214.5t-75.5 -298t75.5 -298t208 -214.5t292.5 -78.5t292.5 78.5t208 214.5t75.5 298zM76 862q0 184 86 334.5t236.5 236.5t334.5 86t334.5 -86t236.5 -236.5t86 -334.5t-86 -334.5t-236.5 -236.5
t-334.5 -86t-334.5 86t-236.5 236.5t-86 334.5zM726 951h2q135 0 135 135q0 72 -43 98t-172 26v-259h78zM753 866l-106 -2v-418h-120v852h213q116 0 178.5 -52t62.5 -174.5t-123 -161.5q44 -8 76.5 -40.5t32.5 -82.5v-341h-118v302q0 77 -32 97.5t-64 20.5z" />
    <glyph glyph-name="macron" unicode="&#xaf;" horiz-adv-x="696" 
d="M90 43h495v-113h-495v113z" />
    <glyph glyph-name="degree" unicode="&#xb0;" horiz-adv-x="915" 
d="M689 1269q0 60 -19.5 108.5t-53 78t-74 45t-85 15.5t-85 -15.5t-73.5 -45t-52.5 -78t-19.5 -108.5t19.5 -108.5t53 -78t74 -45t85 -15.5t85 15.5t73.5 45t52.5 78t19.5 108.5zM457.5 1603q133.5 0 238.5 -85.5t105 -245t-101.5 -248.5t-239 -89t-242 85t-104.5 248.5
t105 249t238.5 85.5z" />
    <glyph glyph-name="plusminus" unicode="&#xb1;" horiz-adv-x="854" 
d="M173 377h516v-118h-516v118zM368 1185h118v-259h234v-106h-234v-266h-118v266h-230v106h230v259z" />
    <glyph glyph-name="uni00B2" unicode="&#xb2;" horiz-adv-x="861" 
d="M507 1135q53 116 53 305q0 88 -13 147.5t-31 76.5t-42 17q-45 0 -72 -50.5t-27 -220.5v-178h-116l1 82q0 172 6 213q4 41 10 75q18 107 96 151q44 25 104 25q142 0 175 -158q19 -93 19 -203q0 -195 -94 -385q-40 -82 -82 -162q-102 -199 -119 -372h276v-78h-387v72
q0 54 196 525q47 113 47 118v0z" />
    <glyph glyph-name="uni00B3" unicode="&#xb3;" horiz-adv-x="880" 
d="M530 1181q121 -54 121 -337q0 -139 -51.5 -220.5t-162 -81.5t-157.5 81.5t-47 256.5v29h100v-30q0 -153 19.5 -203t85.5 -50t90.5 55t24.5 201.5t-32.5 202t-110.5 55.5h-31v87h29q41 0 64.5 7t43.5 31q34 42 34 214t-70 202q-18 8 -47 8t-49 -17q-46 -39 -47 -213v-22
h-100v23q0 161 45.5 238t156 77t160.5 -78t50 -237q0 -233 -119 -279z" />
    <glyph glyph-name="acute" unicode="&#xb4;" horiz-adv-x="650" 
d="M100 1989l398 158v-144l-398 -83v69z" />
    <glyph glyph-name="paragraph" unicode="&#xb6;" horiz-adv-x="1119" 
d="M666 1761h276v-1761h-163v1620h-143v-1620h-163v1180q-153 17 -233.5 92.5t-80.5 195.5t43.5 179.5t151.5 86.5t312 27z" />
    <glyph glyph-name="periodcentered" unicode="&#xb7;" horiz-adv-x="480" 
d="M163 961h170v-175h-170v175z" />
    <glyph glyph-name="cedilla" unicode="&#xb8;" horiz-adv-x="1015" 
d="M383 -501q231 0 231 141q0 64 -46.5 106.5t-113.5 57.5l40 196h57l9 -147q179 -90 179 -242q0 -76 -77 -141.5t-192 -65.5q-40 0 -87 9v86z" />
    <glyph glyph-name="uni00B9" unicode="&#xb9;" horiz-adv-x="626" 
d="M309 1759h68v-1345h-111v1171q-24 -32 -71 -50t-92 -18v74q63 10 118 52.5t88 115.5z" />
    <glyph glyph-name="ordmasculine" unicode="&#xba;" horiz-adv-x="908" 
d="M590 1234q0 208 -54 250q-24 18 -57 18q-90 0 -109 -101q-12 -63 -12 -167v-474q0 -153 13.5 -190t32.5 -64.5t64.5 -27.5t68.5 19q53 44 53 263v474zM239 1205q0 210 38.5 287.5t106.5 101.5q37 13 65.5 13h32.5q114 0 171 -76t57 -326v-404q0 -257 -44 -330
q-58 -97 -166.5 -97t-143 24.5t-52.5 44.5t-41.5 84.5t-23.5 273.5v404z" />
    <glyph glyph-name="guillemotright" unicode="&#xbb;" horiz-adv-x="1304" 
d="M193 915v150l466 -271v-95l-466 -285v160l312 175zM716 915v150l466 -271v-95l-466 -285v160l312 175z" />
    <glyph glyph-name="onequarter" unicode="&#xbc;" horiz-adv-x="1535" 
d="M1192 1224h92v-898h109v-82h-109v-244h-96v244h-272v70zM1188 326v663l-181 -663h181zM312 1774h71v-1358h-116v1181q-25 -32 -73 -50t-94 -18v75q65 10 122 53t90 117zM948 1768h120l-461 -1768h-118z" />
    <glyph glyph-name="onehalf" unicode="&#xbd;" horiz-adv-x="1620" 
d="M1377 724q54 112 54 306q0 88 -13 148.5t-31 77.5t-43 17q-45 0 -72.5 -51t-27.5 -221v-180h-117v83q1 294 43 370q55 98 162.5 98t148 -60t51.5 -138t11 -177.5t-27.5 -197t-68 -180t-82.5 -163.5q-104 -200 -120 -374h278v-81h-392v73q0 57 200 535q46 110 46 115v0z
M312 1774h71v-1358h-116v1181q-25 -32 -73 -50t-94 -18v75q65 10 122 53t90 117zM948 1768h120l-461 -1768h-118z" />
    <glyph glyph-name="threequarters" unicode="&#xbe;" horiz-adv-x="1555" 
d="M1212 1224h92v-898h109v-82h-109v-244h-96v244h-272v70zM1208 326v663l-181 -663h181zM461 1199q124 -57 124 -341q0 -142 -53.5 -224.5t-168 -82.5t-163 82t-48.5 260v31h105v-31q0 -154 20 -204.5t87 -50.5t91.5 55.5t24.5 203t-33 204t-113 56.5h-31v87h31q56 0 84 15
q60 32 60 199.5t-32.5 210t-83.5 42.5t-76 -48.5t-25 -182.5v-23h-105v24q0 163 47.5 241t161.5 78t166 -79t52 -240q0 -236 -122 -282zM1013 1768h120l-460 -1768h-119z" />
    <glyph glyph-name="questiondown" unicode="&#xbf;" horiz-adv-x="1044" 
d="M649 1195h-126v298h126v-298zM718 129l1 -111v-7q0 -132 -35 -195q-59 -104 -176 -104t-149.5 26.5t-49.5 43.5q-56 56 -56 329v69q0 266 58.5 393.5t211.5 170.5v256h125v-316q-85 -32 -156 -90q-36 -30 -70 -135q-20 -60 -20 -336v-8q0 -177 11.5 -226.5t70 -49.5
t71.5 50t13 230v215h150v-205z" />
    <glyph glyph-name="Agrave" unicode="&#xc0;" horiz-adv-x="860" 
d="M254 1924v160l332 -185v-69zM339 1760h152l313 -1760h-144l-58 357h-352l-53 -357h-141zM582 480l-162 996h-2l-149 -996h313z" />
    <glyph glyph-name="Aacute" unicode="&#xc1;" horiz-adv-x="860" 
d="M242 1963l398 158v-144l-398 -83v69zM339 1760h152l313 -1760h-144l-58 357h-352l-53 -357h-141zM582 480l-162 996h-2l-149 -996h313z" />
    <glyph glyph-name="Acircumflex" unicode="&#xc2;" horiz-adv-x="860" 
d="M333 2091h166l120 -254h-117l-86 175l-86 -175h-118zM339 1760h152l313 -1760h-144l-58 357h-352l-53 -357h-141zM582 480l-162 996h-2l-149 -996h313z" />
    <glyph glyph-name="Atilde" unicode="&#xc3;" horiz-adv-x="860" 
d="M124 1945q28 97 70.5 116t92 19t142 -37t113.5 -37h4q17 3 29.5 16.5t26.5 54.5l105 -28l-9 -26q-29 -91 -58.5 -118t-78.5 -27t-139 41t-118.5 41t-44.5 -4t-42 -57zM339 1760h152l313 -1760h-144l-58 357h-352l-53 -357h-141zM582 480l-162 996h-2l-149 -996h313z" />
    <glyph glyph-name="Adieresis" unicode="&#xc4;" horiz-adv-x="860" 
d="M83 2005h182v-133h-182v133zM513 2005h182v-133h-182v133zM339 1760h152l313 -1760h-144l-58 357h-352l-53 -357h-141zM582 480l-162 996h-2l-149 -996h313z" />
    <glyph glyph-name="Aring" unicode="&#xc5;" horiz-adv-x="860" 
d="M515 1982q0 42 -26.5 72t-72.5 30t-72 -30.5t-26 -71.5t26 -71.5t72 -30.5t72.5 30t26.5 72zM290.5 1875q-44.5 46 -44.5 106.5t44.5 106.5t125 46t124.5 -46t44 -107t-44 -106.5t-124.5 -45.5t-125 46zM339 1760h152l313 -1760h-144l-58 357h-352l-53 -357h-141z
M582 480l-162 996h-2l-149 -996h313z" />
    <glyph glyph-name="AE" unicode="&#xc6;" horiz-adv-x="1124" 
d="M564 483v1163l-18 -1l-245 -1162h263zM446 1760h592v-116h-325v-688h306v-120h-306v-718h322v-118h-471v357h-292l-76 -357h-140z" />
    <glyph glyph-name="Ccedilla" unicode="&#xc7;" horiz-adv-x="865" 
d="M311 -501q231 0 231 141q0 64 -46.5 106.5t-113.5 57.5l40 196h57l9 -147q179 -90 179 -242q0 -76 -77 -141.5t-192 -65.5q-40 0 -87 9v86zM134 1251q0 320 80.5 425.5t229 105.5t212.5 -73q46 -53 60 -105q33 -122 33 -365v-152h-151v170q0 222 -24 297t-68 95
q-24 11 -55 11q-95 0 -131.5 -97t-36.5 -305v-706q0 -255 32 -352.5t128 -97.5t125.5 97t29.5 352v141h150v-140q0 -231 -26 -332.5t-59 -145.5q-70 -94 -217 -94t-221 93q-91 114 -91 477v701z" />
    <glyph glyph-name="Egrave" unicode="&#xc8;" horiz-adv-x="709" 
d="M236 1924v160l332 -185v-69zM160 1760h465v-116h-316v-688h297v-121h-297v-717h313v-118h-462v1760z" />
    <glyph glyph-name="Eacute" unicode="&#xc9;" horiz-adv-x="709" 
d="M160 1760h465v-116h-316v-688h297v-121h-297v-717h313v-118h-462v1760zM218 1963l398 158v-144l-398 -83v69z" />
    <glyph glyph-name="Ecircumflex" unicode="&#xca;" horiz-adv-x="709" 
d="M160 1760h465v-116h-316v-688h297v-121h-297v-717h313v-118h-462v1760zM308 2091h166l120 -254h-117l-86 175l-86 -175h-118z" />
    <glyph glyph-name="Edieresis" unicode="&#xcb;" horiz-adv-x="709" 
d="M160 1760h465v-116h-316v-688h297v-121h-297v-717h313v-118h-462v1760zM58 2005h182v-133h-182v133zM488 2005h182v-133h-182v133z" />
    <glyph glyph-name="Igrave" unicode="&#xcc;" horiz-adv-x="504" 
d="M90 1924v160l332 -185v-69zM178 1760h149v-1760h-149v1760z" />
    <glyph glyph-name="Iacute" unicode="&#xcd;" horiz-adv-x="504" 
d="M78 1963l398 158v-144l-398 -83v69zM178 1760h149v-1760h-149v1760z" />
    <glyph glyph-name="Icircumflex" unicode="&#xce;" horiz-adv-x="504" 
d="M169 2091h166l120 -254h-117l-86 175l-86 -175h-118zM178 1760h149v-1760h-149v1760z" />
    <glyph glyph-name="Idieresis" unicode="&#xcf;" horiz-adv-x="504" 
d="M-81 2005h182v-133h-182v133zM349 2005h182v-133h-182v133zM178 1760h149v-1760h-149v1760z" />
    <glyph glyph-name="Eth" unicode="&#xd0;" horiz-adv-x="903" 
d="M621 1274q0 192 -44 277t-138 85h-132v-1508h123q124 0 162 113q30 93 30 278zM159 1760h271q237 0 302 -194q38 -113 38 -308l1 -754q0 -275 -78 -389.5t-269 -114.5h-265v1760zM88 958h428v-100h-428v100z" />
    <glyph glyph-name="Ntilde" unicode="&#xd1;" horiz-adv-x="971" 
d="M193 1945q28 97 70.5 116t92 19t142 -37t113.5 -37h4q17 3 29.5 16.5t26.5 54.5l105 -28l-9 -26q-29 -91 -58.5 -118t-78.5 -27t-139 41t-118.5 41t-44.5 -4t-42 -57zM681 1760h130v-1760h-116l-405 1326l10 -476v-850h-140v1760h104l432 -1361l-15 606v755z" />
    <glyph glyph-name="Ograve" unicode="&#xd2;" horiz-adv-x="887" 
d="M282 1923v160l332 -185v-69zM604 1280q0 210 -30.5 295t-124.5 85t-130 -87.5t-36 -291.5v-762q0 -243 25 -311t55.5 -87t80.5 -19t80 19t55 86.5t25 311.5v761zM134 1268q0 319 80 416.5t246 97.5t229 -108q42 -73 53 -170t11 -236v-749q0 -229 -27.5 -322.5
t-61.5 -133.5q-72 -83 -219 -83q-219 0 -274 189q-37 124 -37 350v749z" />
    <glyph glyph-name="Oacute" unicode="&#xd3;" horiz-adv-x="887" 
d="M604 1280q0 210 -30.5 295t-124.5 85t-130 -87.5t-36 -291.5v-762q0 -243 25 -311t55.5 -87t80.5 -19t80 19t55 86.5t25 311.5v761zM134 1268q0 319 80 416.5t246 97.5t229 -108q42 -73 53 -170t11 -236v-749q0 -229 -27.5 -322.5t-61.5 -133.5q-72 -83 -219 -83
q-219 0 -274 189q-37 124 -37 350v749zM267 1962l398 158v-144l-398 -83v69z" />
    <glyph glyph-name="Ocircumflex" unicode="&#xd4;" horiz-adv-x="887" 
d="M604 1280q0 210 -30.5 295t-124.5 85t-130 -87.5t-36 -291.5v-762q0 -243 25 -311t55.5 -87t80.5 -19t80 19t55 86.5t25 311.5v761zM134 1268q0 319 80 416.5t246 97.5t229 -108q42 -73 53 -170t11 -236v-749q0 -229 -27.5 -322.5t-61.5 -133.5q-72 -83 -219 -83
q-219 0 -274 189q-37 124 -37 350v749zM357 2090h166l120 -254h-117l-86 175l-86 -175h-118z" />
    <glyph glyph-name="Otilde" unicode="&#xd5;" horiz-adv-x="887" 
d="M152 1944q28 97 70.5 116t92 19t142 -37t113.5 -37h4q17 3 29.5 16.5t26.5 54.5l105 -28l-9 -26q-29 -91 -58.5 -118t-78.5 -27t-139 41t-118.5 41t-44.5 -4t-42 -57zM604 1280q0 210 -30.5 295t-124.5 85t-130 -87.5t-36 -291.5v-762q0 -243 25 -311t55.5 -87t80.5 -19
t80 19t55 86.5t25 311.5v761zM134 1268q0 319 80 416.5t246 97.5t229 -108q42 -73 53 -170t11 -236v-749q0 -229 -27.5 -322.5t-61.5 -133.5q-72 -83 -219 -83q-219 0 -274 189q-37 124 -37 350v749z" />
    <glyph glyph-name="Odieresis" unicode="&#xd6;" horiz-adv-x="887" 
d="M604 1280q0 210 -30.5 295t-124.5 85t-130 -87.5t-36 -291.5v-762q0 -243 25 -311t55.5 -87t80.5 -19t80 19t55 86.5t25 311.5v761zM134 1268q0 319 80 416.5t246 97.5t229 -108q42 -73 53 -170t11 -236v-749q0 -229 -27.5 -322.5t-61.5 -133.5q-72 -83 -219 -83
q-219 0 -274 189q-37 124 -37 350v749zM107 2004h182v-133h-182v133zM537 2004h182v-133h-182v133z" />
    <glyph glyph-name="multiply" unicode="&#xd7;" horiz-adv-x="710" 
d="M542 936l84 -84l-188 -187l188 -187l-84 -84l-187 188l-187 -188l-84 84l188 187l-188 187l84 84l187 -188z" />
    <glyph glyph-name="Oslash" unicode="&#xd8;" horiz-adv-x="900" 
d="M602 1384q-6 129 -28 191q-30 85 -124.5 85t-130.5 -87.5t-36 -291.5v-762v-41zM305 216q22 -72 55.5 -93t83.5 -21t80 19t55 86.5t25 311.5v539zM173 163q-39 125 -39 356v749q0 319 80 416.5t250 97.5t234 -124l87 248l107 -36l-146 -411q7 -83 7 -191v-749
q0 -229 -27.5 -322.5t-61.5 -133.5q-72 -83 -209.5 -83t-209.5 65l-89 -251l-99 40z" />
    <glyph glyph-name="Ugrave" unicode="&#xd9;" horiz-adv-x="911" 
d="M293 1925v160l332 -185v-69zM616 1760h149v-1308q0 -248 -63 -360.5t-245 -112.5t-246.5 113t-64.5 360v1308h149v-1303q0 -183 16 -244q30 -111 140 -111q90 0 127.5 51.5t37.5 302.5v1304z" />
    <glyph glyph-name="Uacute" unicode="&#xda;" horiz-adv-x="911" 
d="M616 1760h149v-1308q0 -248 -63 -360.5t-245 -112.5t-246.5 113t-64.5 360v1308h149v-1303q0 -183 16 -244q30 -111 140 -111q90 0 127.5 51.5t37.5 302.5v1304zM293 1963l398 158v-144l-398 -83v69z" />
    <glyph glyph-name="Ucircumflex" unicode="&#xdb;" horiz-adv-x="911" 
d="M616 1760h149v-1308q0 -248 -63 -360.5t-245 -112.5t-246.5 113t-64.5 360v1308h149v-1303q0 -183 16 -244q30 -111 140 -111q90 0 127.5 51.5t37.5 302.5v1304zM383 2092h166l120 -254h-117l-86 175l-86 -175h-118z" />
    <glyph glyph-name="Udieresis" unicode="&#xdc;" horiz-adv-x="911" 
d="M616 1760h149v-1308q0 -248 -63 -360.5t-245 -112.5t-246.5 113t-64.5 360v1308h149v-1303q0 -183 16 -244q30 -111 140 -111q90 0 127.5 51.5t37.5 302.5v1304zM133 2006h182v-133h-182v133zM563 2006h182v-133h-182v133z" />
    <glyph glyph-name="Yacute" unicode="&#xdd;" horiz-adv-x="802" 
d="M235 1963l398 158v-144l-398 -83v69zM624 1760h154l-287 -987v-773h-149v772l-318 988h150l241 -778h3z" />
    <glyph glyph-name="Thorn" unicode="&#xde;" horiz-adv-x="876" 
d="M640 1008q0 203 -30 286t-119 83h-165v-817h159q92 0 123.5 86.5t31.5 325.5v36zM177 1760h149v-259h157q173 0 239 -107q43 -71 54.5 -166t11.5 -235v-20q0 -229 -29 -322t-65 -133q-73 -84 -220 -84h-148v-434h-149v1760z" />
    <glyph glyph-name="germandbls" unicode="&#xdf;" horiz-adv-x="933" 
d="M153 1417q0 139 5.5 172.5t13.5 60.5q36 131 273 131q98 0 160.5 -16.5t100.5 -60t51.5 -110.5t13.5 -177v-197q0 -129 -35 -186t-134 -89q90 -22 138.5 -62.5t69.5 -117.5t21 -212v-77q0 -191 -17 -267.5t-52 -121.5q-68 -87 -244 -87h-104v127q130 0 170 14t55.5 29.5
t29.5 56.5t14 168v261q0 124 -54.5 168.5t-205.5 44.5v138q115 0 160 34.5t45 128.5v330q0 109 -36.5 148t-131 39t-127.5 -39.5t-33 -147.5v-1500h-147v1417z" />
    <glyph glyph-name="agrave" unicode="&#xe0;" horiz-adv-x="874" 
d="M293 1664v160l332 -185v-69zM162 1051q0 163 9 210.5t19.5 83t25 58.5t36 47t49.5 37.5t65.5 22t83.5 8.5t83 -8t65 -18t48.5 -35.5t34.5 -44.5q48 -65 48 -369v-1043h-149v112q-13 -40 -64.5 -81.5t-132.5 -41.5q-118 0 -178.5 99.5t-60.5 288.5v192q0 103 49.5 160
t85.5 80q95 60 191 100.5t110 46.5v168q0 145 -11 171t-18 42q-22 50 -106 50t-108.5 -70.5t-24.5 -268.5v-37h-150v40zM580 837q-165 -75 -190.5 -94t-45.5 -39q-52 -52 -52 -195v-119q0 -155 24 -216t86 -61t110 31t68 67v626z" />
    <glyph glyph-name="aacute" unicode="&#xe1;" horiz-adv-x="874" 
d="M281 1703l398 158v-144l-398 -83v69zM162 1051q0 163 9 210.5t19.5 83t25 58.5t36 47t49.5 37.5t65.5 22t83.5 8.5t83 -8t65 -18t48.5 -35.5t34.5 -44.5q48 -65 48 -369v-1043h-149v112q-13 -40 -64.5 -81.5t-132.5 -41.5q-118 0 -178.5 99.5t-60.5 288.5v192
q0 103 49.5 160t85.5 80q95 60 191 100.5t110 46.5v168q0 145 -11 171t-18 42q-22 50 -106 50t-108.5 -70.5t-24.5 -268.5v-37h-150v40zM580 837q-165 -75 -190.5 -94t-45.5 -39q-52 -52 -52 -195v-119q0 -155 24 -216t86 -61t110 31t68 67v626z" />
    <glyph glyph-name="acircumflex" unicode="&#xe2;" horiz-adv-x="874" 
d="M372 1831h166l120 -254h-117l-86 175l-86 -175h-118zM162 1051q0 163 9 210.5t19.5 83t25 58.5t36 47t49.5 37.5t65.5 22t83.5 8.5t83 -8t65 -18t48.5 -35.5t34.5 -44.5q48 -65 48 -369v-1043h-149v112q-13 -40 -64.5 -81.5t-132.5 -41.5q-118 0 -178.5 99.5t-60.5 288.5
v192q0 103 49.5 160t85.5 80q95 60 191 100.5t110 46.5v168q0 145 -11 171t-18 42q-22 50 -106 50t-108.5 -70.5t-24.5 -268.5v-37h-150v40zM580 837q-165 -75 -190.5 -94t-45.5 -39q-52 -52 -52 -195v-119q0 -155 24 -216t86 -61t110 31t68 67v626z" />
    <glyph glyph-name="atilde" unicode="&#xe3;" horiz-adv-x="874" 
d="M163 1685q28 97 70.5 116t92 19t142 -37t113.5 -37h4q17 3 29.5 16.5t26.5 54.5l105 -28l-9 -26q-29 -91 -58.5 -118t-78.5 -27t-139 41t-118.5 41t-44.5 -4t-42 -57zM162 1051q0 163 9 210.5t19.5 83t25 58.5t36 47t49.5 37.5t65.5 22t83.5 8.5t83 -8t65 -18t48.5 -35.5
t34.5 -44.5q48 -65 48 -369v-1043h-149v112q-13 -40 -64.5 -81.5t-132.5 -41.5q-118 0 -178.5 99.5t-60.5 288.5v192q0 103 49.5 160t85.5 80q95 60 191 100.5t110 46.5v168q0 145 -11 171t-18 42q-22 50 -106 50t-108.5 -70.5t-24.5 -268.5v-37h-150v40zM580 837
q-165 -75 -190.5 -94t-45.5 -39q-52 -52 -52 -195v-119q0 -155 24 -216t86 -61t110 31t68 67v626z" />
    <glyph glyph-name="adieresis" unicode="&#xe4;" horiz-adv-x="874" 
d="M122 1745h182v-133h-182v133zM552 1745h182v-133h-182v133zM162 1051q0 163 9 210.5t19.5 83t25 58.5t36 47t49.5 37.5t65.5 22t83.5 8.5t83 -8t65 -18t48.5 -35.5t34.5 -44.5q48 -65 48 -369v-1043h-149v112q-13 -40 -64.5 -81.5t-132.5 -41.5q-118 0 -178.5 99.5
t-60.5 288.5v192q0 103 49.5 160t85.5 80q95 60 191 100.5t110 46.5v168q0 145 -11 171t-18 42q-22 50 -106 50t-108.5 -70.5t-24.5 -268.5v-37h-150v40zM580 837q-165 -75 -190.5 -94t-45.5 -39q-52 -52 -52 -195v-119q0 -155 24 -216t86 -61t110 31t68 67v626z" />
    <glyph glyph-name="aring" unicode="&#xe5;" horiz-adv-x="874" 
d="M554 1722q0 42 -26.5 72t-72.5 30t-72 -30.5t-26 -71.5t26 -71.5t72 -30.5t72.5 30t26.5 72zM329.5 1615q-44.5 46 -44.5 106.5t44.5 106.5t125 46t124.5 -46t44 -107t-44 -106.5t-124.5 -45.5t-125 46zM162 1051q0 163 9 210.5t19.5 83t25 58.5t36 47t49.5 37.5t65.5 22
t83.5 8.5t83 -8t65 -18t48.5 -35.5t34.5 -44.5q48 -65 48 -369v-1043h-149v112q-13 -40 -64.5 -81.5t-132.5 -41.5q-118 0 -178.5 99.5t-60.5 288.5v192q0 103 49.5 160t85.5 80q95 60 191 100.5t110 46.5v168q0 145 -11 171t-18 42q-22 50 -106 50t-108.5 -70.5
t-24.5 -268.5v-37h-150v40zM580 837q-165 -75 -190.5 -94t-45.5 -39q-52 -52 -52 -195v-119q0 -155 24 -216t86 -61t110 31t68 67v626z" />
    <glyph glyph-name="ae" unicode="&#xe6;" horiz-adv-x="1265" 
d="M1000 874v208q0 189 -11.5 217.5t-29.5 58t-82.5 29.5t-96.5 -43t-41.5 -110.5t-9.5 -170.5v-189h271zM580 211v629q-164 -76 -190 -96t-46 -39q-52 -50 -52 -194v-121q0 -156 24 -217t86 -61t110 31.5t68 67.5zM450 1518q160 0 205 -91q72 91 214.5 91t192 -63
t68.5 -147.5t19 -305.5l1 -248h-421v-311q1 -171 15 -227q27 -103 112 -103h2q38 -1 58 7q69 26 80 159q4 55 4 160v117h145v-51q0 -243 -11 -287q-31 -127 -54.5 -150t-51.5 -46q-50 -40 -160 -40q-175 0 -242 121q-61 -59 -136 -86.5t-118 -27.5q-228 0 -228 386v191
q0 126 86 202q88 76 286 160q48 20 64 28v109q0 206 -12.5 237.5t-31.5 58.5t-85 27q-112 0 -128 -118q-11 -87 -11 -223v-36h-150v40q0 211 18 265q39 115 99.5 158.5t170.5 43.5z" />
    <glyph glyph-name="ccedilla" unicode="&#xe7;" horiz-adv-x="791" 
d="M271 -501q231 0 231 141q0 64 -46.5 106.5t-113.5 57.5l40 196h57l9 -147q179 -90 179 -242q0 -76 -77 -141.5t-192 -65.5q-40 0 -87 9v86zM128 1028q0 250 50 348t134 126q49 16 133 16t154 -46q45 -30 73 -115t28 -337v-47h-151v92q0 174 -12 226q-22 90 -111 90
q-109 0 -135 -126q-14 -68 -14 -198v-602q0 -203 15.5 -241.5t31.5 -58.5q28 -36 100.5 -36t97.5 63.5t26 138.5t1 128v113h151v-45q0 -225 -15 -308q-39 -227 -253 -227q-182 0 -242 112q-41 75 -51.5 171t-10.5 246v517z" />
    <glyph glyph-name="egrave" unicode="&#xe8;" 
d="M260 1664v160l332 -185v-69zM549 877v201q0 169 -13 221q-22 88 -110 88q-118 0 -140 -155q-9 -63 -9 -154v-18v-183h272zM128 1014q0 262 48 360q50 98 134 127q50 17 115.5 17t113.5 -16q73 -24 123 -131q36 -75 36 -369v-250h-421v-302q0 -232 34.5 -284.5t102 -52.5
t95 42t34 108.5t6.5 180.5v112h145v-49q0 -222 -15 -304q-38 -221 -247 -221q-182 0 -242 112q-41 74 -51.5 169t-10.5 248v503z" />
    <glyph glyph-name="eacute" unicode="&#xe9;" 
d="M549 877v201q0 169 -13 221q-22 88 -110 88q-118 0 -140 -155q-9 -63 -9 -154v-18v-183h272zM128 1014q0 262 48 360q50 98 134 127q50 17 115.5 17t113.5 -16q73 -24 123 -131q36 -75 36 -369v-250h-421v-302q0 -232 34.5 -284.5t102 -52.5t95 42t34 108.5t6.5 180.5
v112h145v-49q0 -222 -15 -304q-38 -221 -247 -221q-182 0 -242 112q-41 74 -51.5 169t-10.5 248v503zM256 1703l398 158v-144l-398 -83v69z" />
    <glyph glyph-name="ecircumflex" unicode="&#xea;" 
d="M549 877v201q0 169 -13 221q-22 88 -110 88q-118 0 -140 -155q-9 -63 -9 -154v-18v-183h272zM128 1014q0 262 48 360q50 98 134 127q50 17 115.5 17t113.5 -16q73 -24 123 -131q36 -75 36 -369v-250h-421v-302q0 -232 34.5 -284.5t102 -52.5t95 42t34 108.5t6.5 180.5
v112h145v-49q0 -222 -15 -304q-38 -221 -247 -221q-182 0 -242 112q-41 74 -51.5 169t-10.5 248v503zM347 1831h166l120 -254h-117l-86 175l-86 -175h-118z" />
    <glyph glyph-name="edieresis" unicode="&#xeb;" 
d="M549 877v201q0 169 -13 221q-22 88 -110 88q-118 0 -140 -155q-9 -63 -9 -154v-18v-183h272zM128 1014q0 262 48 360q50 98 134 127q50 17 115.5 17t113.5 -16q73 -24 123 -131q36 -75 36 -369v-250h-421v-302q0 -232 34.5 -284.5t102 -52.5t95 42t34 108.5t6.5 180.5
v112h145v-49q0 -222 -15 -304q-38 -221 -247 -221q-182 0 -242 112q-41 74 -51.5 169t-10.5 248v503zM97 1745h182v-133h-182v133zM527 1745h182v-133h-182v133z" />
    <glyph glyph-name="igrave" unicode="&#xec;" horiz-adv-x="474" 
d="M65 1664v160l332 -185v-69zM162 1500h150v-1500h-150v1500z" />
    <glyph glyph-name="iacute" unicode="&#xed;" horiz-adv-x="474" 
d="M162 1500h150v-1500h-150v1500zM53 1703l398 158v-144l-398 -83v69z" />
    <glyph glyph-name="icircumflex" unicode="&#xee;" horiz-adv-x="474" 
d="M162 1500h150v-1500h-150v1500zM144 1831h166l120 -254h-117l-86 175l-86 -175h-118z" />
    <glyph glyph-name="idieresis" unicode="&#xef;" horiz-adv-x="474" 
d="M162 1500h150v-1500h-150v1500zM-106 1745h182v-133h-182v133zM324 1745h182v-133h-182v133z" />
    <glyph glyph-name="eth" unicode="&#xf0;" horiz-adv-x="926" 
d="M616 926q-3 1 -60.5 26.5t-128.5 25.5q-99 0 -132 -91.5t-33 -341.5v-99q0 -141 15.5 -212t51 -99t104.5 -28q108 0 145.5 89.5t37.5 308.5v421zM545 1534q-90 106 -236 106h-14v140h15q244 0 370 -164l200 119l53 -100l-199 -119q16 -48 31 -558v-452q0 -304 -97 -426
q-79 -100 -250 -100t-238 116t-67 346v115q0 309 66.5 427.5t233.5 118.5q11 0 40.5 -1t82 -25.5t82.5 -67.5q-8 383 -20 425l-225 -135l-53 100z" />
    <glyph glyph-name="ntilde" unicode="&#xf1;" horiz-adv-x="922" 
d="M169 1685q28 97 70.5 116t92 19t142 -37t113.5 -37h4q17 3 29.5 16.5t26.5 54.5l105 -28l-9 -26q-29 -91 -58.5 -118t-78.5 -27t-139 41t-118.5 41t-44.5 -4t-42 -57zM309 1353q20 67 88.5 116.5t161.5 49.5t153 -77t60 -231v-1211h-149v1223q0 87 -39.5 125.5
t-105.5 38.5q-169 0 -169 -167v-1220h-149v1500h149v-147z" />
    <glyph glyph-name="ograve" unicode="&#xf2;" horiz-adv-x="845" 
d="M261 1664v160l332 -185v-69zM568 1053q0 258 -68 311q-30 23 -72 23q-114 0 -136 -127q-15 -79 -15 -207v-590q0 -221 37.5 -285.5t119.5 -64.5t108 91.5t26 258.5v590zM128 1018q0 260 49 358t133 126q50 16 112 16q253 0 284 -275q11 -94 11 -225v-503
q0 -177 -7.5 -229t-14.5 -90q-40 -214 -278 -214q-97 0 -155 40q-110 76 -127 279q-7 90 -7 214v503z" />
    <glyph glyph-name="oacute" unicode="&#xf3;" horiz-adv-x="845" 
d="M568 1053q0 258 -68 311q-30 23 -72 23q-114 0 -136 -127q-15 -79 -15 -207v-590q0 -221 37.5 -285.5t119.5 -64.5t108 91.5t26 258.5v590zM128 1018q0 260 49 358t133 126q50 16 112 16q253 0 284 -275q11 -94 11 -225v-503q0 -177 -7.5 -229t-14.5 -90
q-40 -214 -278 -214q-97 0 -155 40q-110 76 -127 279q-7 90 -7 214v503zM258 1703l398 158v-144l-398 -83v69z" />
    <glyph glyph-name="ocircumflex" unicode="&#xf4;" horiz-adv-x="845" 
d="M568 1053q0 258 -68 311q-30 23 -72 23q-114 0 -136 -127q-15 -79 -15 -207v-590q0 -221 37.5 -285.5t119.5 -64.5t108 91.5t26 258.5v590zM128 1018q0 260 49 358t133 126q50 16 112 16q253 0 284 -275q11 -94 11 -225v-503q0 -177 -7.5 -229t-14.5 -90
q-40 -214 -278 -214q-97 0 -155 40q-110 76 -127 279q-7 90 -7 214v503zM348 1831h166l120 -254h-117l-86 175l-86 -175h-118z" />
    <glyph glyph-name="otilde" unicode="&#xf5;" horiz-adv-x="845" 
d="M131 1685q28 97 70.5 116t92 19t142 -37t113.5 -37h4q17 3 29.5 16.5t26.5 54.5l105 -28l-9 -26q-29 -91 -58.5 -118t-78.5 -27t-139 41t-118.5 41t-44.5 -4t-42 -57zM568 1053q0 258 -68 311q-30 23 -72 23q-114 0 -136 -127q-15 -79 -15 -207v-590q0 -221 37.5 -285.5
t119.5 -64.5t108 91.5t26 258.5v590zM128 1018q0 260 49 358t133 126q50 16 112 16q253 0 284 -275q11 -94 11 -225v-503q0 -177 -7.5 -229t-14.5 -90q-40 -214 -278 -214q-97 0 -155 40q-110 76 -127 279q-7 90 -7 214v503z" />
    <glyph glyph-name="odieresis" unicode="&#xf6;" horiz-adv-x="845" 
d="M568 1053q0 258 -68 311q-30 23 -72 23q-114 0 -136 -127q-15 -79 -15 -207v-590q0 -221 37.5 -285.5t119.5 -64.5t108 91.5t26 258.5v590zM128 1018q0 260 49 358t133 126q50 16 112 16q253 0 284 -275q11 -94 11 -225v-503q0 -177 -7.5 -229t-14.5 -90
q-40 -214 -278 -214q-97 0 -155 40q-110 76 -127 279q-7 90 -7 214v503zM98 1745h182v-133h-182v133zM528 1745h182v-133h-182v133z" />
    <glyph glyph-name="divide" unicode="&#xf7;" horiz-adv-x="804" 
d="M303 1174h198v-198h-198v198zM303 535h198v-208h-198v208zM94 823h616v-115h-616v115z" />
    <glyph glyph-name="oslash" unicode="&#xf8;" horiz-adv-x="879" 
d="M539 1302q-51 70 -111 85q-114 0 -136 -127q-15 -79 -15 -207v-590q0 -49 2 -91zM327 159q38 -46 113.5 -46t101.5 91.5t26 258.5v554zM670 1379q47 -98 47 -361v-503q0 -177 -7.5 -229t-14.5 -90q-40 -214 -278 -214q-79 0 -132 26l-51 -181l-100 28l65 232
q-53 79 -62 191.5t-9 236.5v503q0 260 49 358t133 126q50 16 131 16t147 -43l55 197l101 -28z" />
    <glyph glyph-name="ugrave" unicode="&#xf9;" horiz-adv-x="924" 
d="M321 1664v160l332 -185v-69zM300 292q0 -173 152 -173q74 0 118.5 49.5t44.5 134.5l-1 1197h150v-1500h-149v150q-19 -68 -81.5 -119t-144.5 -51t-160 67.5t-78 237.5v1215h149v-1208z" />
    <glyph glyph-name="uacute" unicode="&#xfa;" horiz-adv-x="924" 
d="M300 292q0 -173 152 -173q74 0 118.5 49.5t44.5 134.5l-1 1197h150v-1500h-149v150q-19 -68 -81.5 -119t-144.5 -51t-160 67.5t-78 237.5v1215h149v-1208zM309 1703l398 158v-144l-398 -83v69z" />
    <glyph glyph-name="ucircumflex" unicode="&#xfb;" horiz-adv-x="924" 
d="M300 292q0 -173 152 -173q74 0 118.5 49.5t44.5 134.5l-1 1197h150v-1500h-149v150q-19 -68 -81.5 -119t-144.5 -51t-160 67.5t-78 237.5v1215h149v-1208zM399 1831h166l120 -254h-117l-86 175l-86 -175h-118z" />
    <glyph glyph-name="udieresis" unicode="&#xfc;" horiz-adv-x="924" 
d="M300 292q0 -173 152 -173q74 0 118.5 49.5t44.5 134.5l-1 1197h150v-1500h-149v150q-19 -68 -81.5 -119t-144.5 -51t-160 67.5t-78 237.5v1215h149v-1208zM149 1745h182v-133h-182v133zM579 1745h182v-133h-182v133z" />
    <glyph glyph-name="yacute" unicode="&#xfd;" horiz-adv-x="733" 
d="M203 1703l398 158v-144l-398 -83v69zM541 1500h149l-239 -1497q-23 -154 -53 -191t-67.5 -43.5t-76.5 -6.5h-124v128h55q107 0 123 11q14 14 14 40t-3 44t-8 53l-250 1462h150l119 -793l48 -408h13l43 408z" />
    <glyph glyph-name="thorn" unicode="&#xfe;" horiz-adv-x="882" 
d="M597 1062q0 176 -14.5 219t-34.5 74t-66 31h-28q-87 0 -119 -92q-25 -72 -25 -235v-596q0 -191 30.5 -269.5t115.5 -78.5t113 78t28 275v594zM160 1783h150v-398q53 126 199 126q169 -1 213 -201q24 -112 25 -297v-538q0 -365 -140 -457q-56 -36 -122 -36t-110.5 36.5
t-64.5 89.5v-373h-150v2048z" />
    <glyph glyph-name="ydieresis" unicode="&#xff;" horiz-adv-x="733" 
d="M44 1745h182v-133h-182v133zM474 1745h182v-133h-182v133zM541 1500h149l-239 -1497q-23 -154 -53 -191t-67.5 -43.5t-76.5 -6.5h-124v128h55q107 0 123 11q14 14 14 40t-3 44t-8 53l-250 1462h150l119 -793l48 -408h13l43 408z" />
    <glyph glyph-name="Amacron" unicode="&#x100;" horiz-adv-x="860" 
d="M158 1953h495v-113h-495v113zM339 1760h152l313 -1760h-144l-58 357h-352l-53 -357h-141zM582 480l-162 996h-2l-149 -996h313z" />
    <glyph glyph-name="amacron" unicode="&#x101;" horiz-adv-x="874" 
d="M197 1693h495v-113h-495v113zM162 1051q0 163 9 210.5t19.5 83t25 58.5t36 47t49.5 37.5t65.5 22t83.5 8.5t83 -8t65 -18t48.5 -35.5t34.5 -44.5q48 -65 48 -369v-1043h-149v112q-13 -40 -64.5 -81.5t-132.5 -41.5q-118 0 -178.5 99.5t-60.5 288.5v192q0 103 49.5 160
t85.5 80q95 60 191 100.5t110 46.5v168q0 145 -11 171t-18 42q-22 50 -106 50t-108.5 -70.5t-24.5 -268.5v-37h-150v40zM580 837q-165 -75 -190.5 -94t-45.5 -39q-52 -52 -52 -195v-119q0 -155 24 -216t86 -61t110 31t68 67v626z" />
    <glyph glyph-name="Abreve" unicode="&#x102;" horiz-adv-x="860" 
d="M540 2083h64v-13q0 -88 -48.5 -139.5t-141.5 -51.5t-142 50.5t-49 138.5v15h64q1 -113 127 -113t126 113zM339 1760h152l313 -1760h-144l-58 357h-352l-53 -357h-141zM582 480l-162 996h-2l-149 -996h313z" />
    <glyph glyph-name="abreve" unicode="&#x103;" horiz-adv-x="874" 
d="M579 1823h64v-13q0 -88 -48.5 -139.5t-141.5 -51.5t-142 50.5t-49 138.5v15h64q1 -113 127 -113t126 113zM162 1051q0 163 9 210.5t19.5 83t25 58.5t36 47t49.5 37.5t65.5 22t83.5 8.5t83 -8t65 -18t48.5 -35.5t34.5 -44.5q48 -65 48 -369v-1043h-149v112
q-13 -40 -64.5 -81.5t-132.5 -41.5q-118 0 -178.5 99.5t-60.5 288.5v192q0 103 49.5 160t85.5 80q95 60 191 100.5t110 46.5v168q0 145 -11 171t-18 42q-22 50 -106 50t-108.5 -70.5t-24.5 -268.5v-37h-150v40zM580 837q-165 -75 -190.5 -94t-45.5 -39q-52 -52 -52 -195
v-119q0 -155 24 -216t86 -61t110 31t68 67v626z" />
    <glyph glyph-name="Aogonek" unicode="&#x104;" horiz-adv-x="860" 
d="M816 -401q-44 -20 -128 -20q-193 0 -193 145q0 70 44 145t132 141h64q-73 -62 -109.5 -129.5t-36.5 -122.5q0 -87 108 -87q52 0 85 10t34 11v-93zM339 1760h152l313 -1760h-144l-58 357h-352l-53 -357h-141zM582 480l-162 996h-2l-149 -996h313z" />
    <glyph glyph-name="aogonek" unicode="&#x105;" horiz-adv-x="874" 
d="M811 -401q-44 -20 -128 -20q-193 0 -193 145q0 70 44 145t132 141h64q-73 -62 -109.5 -129.5t-36.5 -122.5q0 -87 108 -87q52 0 85 10t34 11v-93zM162 1051q0 163 9 210.5t19.5 83t25 58.5t36 47t49.5 37.5t65.5 22t83.5 8.5t83 -8t65 -18t48.5 -35.5t34.5 -44.5
q48 -65 48 -369v-1043h-149v112q-13 -40 -64.5 -81.5t-132.5 -41.5q-118 0 -178.5 99.5t-60.5 288.5v192q0 103 49.5 160t85.5 80q95 60 191 100.5t110 46.5v168q0 145 -11 171t-18 42q-22 50 -106 50t-108.5 -70.5t-24.5 -268.5v-37h-150v40zM580 837q-165 -75 -190.5 -94
t-45.5 -39q-52 -52 -52 -195v-119q0 -155 24 -216t86 -61t110 31t68 67v626z" />
    <glyph glyph-name="Cacute" unicode="&#x106;" horiz-adv-x="865" 
d="M134 1251q0 320 80.5 425.5t229 105.5t212.5 -73q46 -53 60 -105q33 -122 33 -365v-152h-151v170q0 222 -24 297t-68 95q-24 11 -55 11q-95 0 -131.5 -97t-36.5 -305v-706q0 -255 32 -352.5t128 -97.5t125.5 97t29.5 352v141h150v-140q0 -231 -26 -332.5t-59 -145.5
q-70 -94 -217 -94t-221 93q-91 114 -91 477v701zM264 1963l398 158v-144l-398 -83v69z" />
    <glyph glyph-name="cacute" unicode="&#x107;" horiz-adv-x="791" 
d="M128 1028q0 250 50 348t134 126q49 16 133 16t154 -46q45 -30 73 -115t28 -337v-47h-151v92q0 174 -12 226q-22 90 -111 90q-109 0 -135 -126q-14 -68 -14 -198v-602q0 -203 15.5 -241.5t31.5 -58.5q28 -36 100.5 -36t97.5 63.5t26 138.5t1 128v113h151v-45
q0 -225 -15 -308q-39 -227 -253 -227q-182 0 -242 112q-41 75 -51.5 171t-10.5 246v517zM259 1703l398 158v-144l-398 -83v69z" />
    <glyph glyph-name="Ccircumflex" unicode="&#x108;" horiz-adv-x="865" 
d="M134 1251q0 320 80.5 425.5t229 105.5t212.5 -73q46 -53 60 -105q33 -122 33 -365v-152h-151v170q0 222 -24 297t-68 95q-24 11 -55 11q-95 0 -131.5 -97t-36.5 -305v-706q0 -255 32 -352.5t128 -97.5t125.5 97t29.5 352v141h150v-140q0 -231 -26 -332.5t-59 -145.5
q-70 -94 -217 -94t-221 93q-91 114 -91 477v701zM355 2091h166l120 -254h-117l-86 175l-86 -175h-118z" />
    <glyph glyph-name="ccircumflex" unicode="&#x109;" horiz-adv-x="791" 
d="M128 1028q0 250 50 348t134 126q49 16 133 16t154 -46q45 -30 73 -115t28 -337v-47h-151v92q0 174 -12 226q-22 90 -111 90q-109 0 -135 -126q-14 -68 -14 -198v-602q0 -203 15.5 -241.5t31.5 -58.5q28 -36 100.5 -36t97.5 63.5t26 138.5t1 128v113h151v-45
q0 -225 -15 -308q-39 -227 -253 -227q-182 0 -242 112q-41 75 -51.5 171t-10.5 246v517zM350 1831h166l120 -254h-117l-86 175l-86 -175h-118z" />
    <glyph glyph-name="Cdotaccent" unicode="&#x10a;" horiz-adv-x="865" 
d="M368 1988h159v-133h-159v133zM134 1251q0 320 80.5 425.5t229 105.5t212.5 -73q46 -53 60 -105q33 -122 33 -365v-152h-151v170q0 222 -24 297t-68 95q-24 11 -55 11q-95 0 -131.5 -97t-36.5 -305v-706q0 -255 32 -352.5t128 -97.5t125.5 97t29.5 352v141h150v-140
q0 -231 -26 -332.5t-59 -145.5q-70 -94 -217 -94t-221 93q-91 114 -91 477v701z" />
    <glyph glyph-name="cdotaccent" unicode="&#x10b;" horiz-adv-x="791" 
d="M352 1728h159v-133h-159v133zM128 1028q0 250 50 348t134 126q49 16 133 16t154 -46q45 -30 73 -115t28 -337v-47h-151v92q0 174 -12 226q-22 90 -111 90q-109 0 -135 -126q-14 -68 -14 -198v-602q0 -203 15.5 -241.5t31.5 -58.5q28 -36 100.5 -36t97.5 63.5t26 138.5
t1 128v113h151v-45q0 -225 -15 -308q-39 -227 -253 -227q-182 0 -242 112q-41 75 -51.5 171t-10.5 246v517z" />
    <glyph glyph-name="Ccaron" unicode="&#x10c;" horiz-adv-x="865" 
d="M134 1251q0 320 80.5 425.5t229 105.5t212.5 -73q46 -53 60 -105q33 -122 33 -365v-152h-151v170q0 222 -24 297t-68 95q-24 11 -55 11q-95 0 -131.5 -97t-36.5 -305v-706q0 -255 32 -352.5t128 -97.5t125.5 97t29.5 352v141h150v-140q0 -231 -26 -332.5t-59 -145.5
q-70 -94 -217 -94t-221 93q-91 114 -91 477v701zM524 2090h117l-120 -253h-166l-121 253h118l86 -175z" />
    <glyph glyph-name="ccaron" unicode="&#x10d;" horiz-adv-x="791" 
d="M128 1028q0 250 50 348t134 126q49 16 133 16t154 -46q45 -30 73 -115t28 -337v-47h-151v92q0 174 -12 226q-22 90 -111 90q-109 0 -135 -126q-14 -68 -14 -198v-602q0 -203 15.5 -241.5t31.5 -58.5q28 -36 100.5 -36t97.5 63.5t26 138.5t1 128v113h151v-45
q0 -225 -15 -308q-39 -227 -253 -227q-182 0 -242 112q-41 75 -51.5 171t-10.5 246v517zM519 1830h117l-120 -253h-166l-121 253h118l86 -175z" />
    <glyph glyph-name="Dcaron" unicode="&#x10e;" horiz-adv-x="903" 
d="M621 1274q0 192 -44 277t-138 85h-132v-1508h123q124 0 162 113q30 93 30 278zM159 1760h271q237 0 302 -194q38 -113 38 -308l1 -754q0 -275 -78 -389.5t-269 -114.5h-265v1760zM521 2090h117l-120 -253h-166l-121 253h118l86 -175z" />
    <glyph glyph-name="dcaron" unicode="&#x10f;" horiz-adv-x="872" 
d="M567 1037q0 193 -29.5 270.5t-114.5 77.5t-114 -79.5t-29 -275.5v-594q0 -206 32.5 -264t96.5 -58t91.5 23.5t47 79t19.5 217.5v603zM566 1783h150v-1783h-150v114q-52 -125 -199 -125q-167 1 -212 199q-25 109 -25 293v527q0 302 72.5 406t204.5 104q51 0 94.5 -36.5
t64.5 -88.5v390zM854 1783h271v-193l-114 -426h-106l91 417h-142v202z" />
    <glyph glyph-name="Dcroat" unicode="&#x110;" horiz-adv-x="903" 
d="M621 1274q0 192 -44 277t-138 85h-132v-1508h123q124 0 162 113q30 93 30 278zM159 1760h271q237 0 302 -194q38 -113 38 -308l1 -754q0 -275 -78 -389.5t-269 -114.5h-265v1760zM14 954h495v-113h-495v113z" />
    <glyph glyph-name="dcroat" unicode="&#x111;" horiz-adv-x="872" 
d="M567 1037q0 193 -29.5 270.5t-114.5 77.5t-114 -79.5t-29 -275.5v-594q0 -206 32.5 -264t96.5 -58t91.5 23.5t47 79t19.5 217.5v603zM566 1783h150v-1783h-150v114q-52 -125 -199 -125q-167 1 -212 199q-25 109 -25 293v527q0 302 72.5 406t204.5 104q51 0 94.5 -36.5
t64.5 -88.5v390zM372 1685h495v-113h-495v113z" />
    <glyph glyph-name="Emacron" unicode="&#x112;" horiz-adv-x="709" 
d="M140 1953h495v-113h-495v113zM160 1760h465v-116h-316v-688h297v-121h-297v-717h313v-118h-462v1760z" />
    <glyph glyph-name="emacron" unicode="&#x113;" 
d="M164 1693h495v-113h-495v113zM549 877v201q0 169 -13 221q-22 88 -110 88q-118 0 -140 -155q-9 -63 -9 -154v-18v-183h272zM128 1014q0 262 48 360q50 98 134 127q50 17 115.5 17t113.5 -16q73 -24 123 -131q36 -75 36 -369v-250h-421v-302q0 -232 34.5 -284.5t102 -52.5
t95 42t34 108.5t6.5 180.5v112h145v-49q0 -222 -15 -304q-38 -221 -247 -221q-182 0 -242 112q-41 74 -51.5 169t-10.5 248v503z" />
    <glyph glyph-name="Ebreve" unicode="&#x114;" horiz-adv-x="709" 
d="M522 2083h64v-13q0 -88 -48.5 -139.5t-141.5 -51.5t-142 50.5t-49 138.5v15h64q1 -113 127 -113t126 113zM160 1760h465v-116h-316v-688h297v-121h-297v-717h313v-118h-462v1760z" />
    <glyph glyph-name="ebreve" unicode="&#x115;" 
d="M546 1823h64v-13q0 -88 -48.5 -139.5t-141.5 -51.5t-142 50.5t-49 138.5v15h64q1 -113 127 -113t126 113zM549 877v201q0 169 -13 221q-22 88 -110 88q-118 0 -140 -155q-9 -63 -9 -154v-18v-183h272zM128 1014q0 262 48 360q50 98 134 127q50 17 115.5 17t113.5 -16
q73 -24 123 -131q36 -75 36 -369v-250h-421v-302q0 -232 34.5 -284.5t102 -52.5t95 42t34 108.5t6.5 180.5v112h145v-49q0 -222 -15 -304q-38 -221 -247 -221q-182 0 -242 112q-41 74 -51.5 169t-10.5 248v503z" />
    <glyph glyph-name="Edotaccent" unicode="&#x116;" horiz-adv-x="709" 
d="M325 1988h159v-133h-159v133zM160 1760h465v-116h-316v-688h297v-121h-297v-717h313v-118h-462v1760z" />
    <glyph glyph-name="edotaccent" unicode="&#x117;" 
d="M349 1728h159v-133h-159v133zM549 877v201q0 169 -13 221q-22 88 -110 88q-118 0 -140 -155q-9 -63 -9 -154v-18v-183h272zM128 1014q0 262 48 360q50 98 134 127q50 17 115.5 17t113.5 -16q73 -24 123 -131q36 -75 36 -369v-250h-421v-302q0 -232 34.5 -284.5t102 -52.5
t95 42t34 108.5t6.5 180.5v112h145v-49q0 -222 -15 -304q-38 -221 -247 -221q-182 0 -242 112q-41 74 -51.5 169t-10.5 248v503z" />
    <glyph glyph-name="Eogonek" unicode="&#x118;" horiz-adv-x="709" 
d="M160 1760h465v-116h-316v-688h297v-121h-297v-717h313v-118h-462v1760zM630 -401q-44 -20 -128 -20q-193 0 -193 145q0 70 44 145t132 141h64q-73 -62 -109.5 -129.5t-36.5 -122.5q0 -87 108 -87q52 0 85 10t34 11v-93z" />
    <glyph glyph-name="eogonek" unicode="&#x119;" 
d="M606 -401q-44 -20 -128 -20q-193 0 -193 145q0 70 44 145t132 141h64q-73 -62 -109.5 -129.5t-36.5 -122.5q0 -87 108 -87q52 0 85 10t34 11v-93zM549 877v201q0 169 -13 221q-22 88 -110 88q-118 0 -140 -155q-9 -63 -9 -154v-18v-183h272zM128 1014q0 262 48 360
q50 98 134 127q50 17 115.5 17t113.5 -16q73 -24 123 -131q36 -75 36 -369v-250h-421v-302q0 -232 34.5 -284.5t102 -52.5t95 42t34 108.5t6.5 180.5v112h145v-49q0 -222 -15 -304q-38 -221 -247 -221q-182 0 -242 112q-41 74 -51.5 169t-10.5 248v503z" />
    <glyph glyph-name="Ecaron" unicode="&#x11a;" horiz-adv-x="709" 
d="M160 1760h465v-116h-316v-688h297v-121h-297v-717h313v-118h-462v1760zM477 2090h117l-120 -253h-166l-121 253h118l86 -175z" />
    <glyph glyph-name="ecaron" unicode="&#x11b;" 
d="M549 877v201q0 169 -13 221q-22 88 -110 88q-118 0 -140 -155q-9 -63 -9 -154v-18v-183h272zM128 1014q0 262 48 360q50 98 134 127q50 17 115.5 17t113.5 -16q73 -24 123 -131q36 -75 36 -369v-250h-421v-302q0 -232 34.5 -284.5t102 -52.5t95 42t34 108.5t6.5 180.5
v112h145v-49q0 -222 -15 -304q-38 -221 -247 -221q-182 0 -242 112q-41 74 -51.5 169t-10.5 248v503zM516 1830h117l-120 -253h-166l-121 253h118l86 -175z" />
    <glyph glyph-name="Gcircumflex" unicode="&#x11c;" horiz-adv-x="889" 
d="M134 1245q0 273 54 380q78 157 257 157q115 0 176 -45t79 -98q34 -99 40.5 -188.5t6.5 -203.5v-147h-152v272q0 150 -30 219t-119.5 69t-126 -89.5t-36.5 -309.5v-718q0 -249 32 -345t126 -96t126 97t32 342v222h-151v127h299v-890h-98l-16 102q-37 -62 -87 -92t-129 -30
q-148 0 -215.5 129.5t-67.5 422.5v713zM369 2091h166l120 -254h-117l-86 175l-86 -175h-118z" />
    <glyph glyph-name="gcircumflex" unicode="&#x11d;" horiz-adv-x="860" 
d="M367 1831h166l120 -254h-117l-86 175l-86 -175h-118zM563 1050q0 225 -35.5 281t-108 56t-104 -54t-36 -134t-4.5 -147v-441q0 -193 33.5 -274.5t125.5 -81.5q48 1 74 27q55 56 55 332v436zM190.5 1376.5q64.5 141.5 198.5 141.5t174 -106v88h149v-1403q0 -223 -166 -301
q-65 -31 -136 -31t-148.5 24t-129.5 64l57 115q98 -73 220 -73q77 0 115.5 50.5t38.5 134.5v165q-30 -67 -75.5 -92.5t-107.5 -25.5q-172 0 -223 194q-31 122 -31 311v381q0 222 64.5 363.5z" />
    <glyph glyph-name="Gbreve" unicode="&#x11e;" horiz-adv-x="889" 
d="M580 2083h64v-13q0 -88 -48.5 -139.5t-141.5 -51.5t-142 50.5t-49 138.5v15h64q1 -113 127 -113t126 113zM134 1245q0 273 54 380q78 157 257 157q115 0 176 -45t79 -98q34 -99 40.5 -188.5t6.5 -203.5v-147h-152v272q0 150 -30 219t-119.5 69t-126 -89.5t-36.5 -309.5
v-718q0 -249 32 -345t126 -96t126 97t32 342v222h-151v127h299v-890h-98l-16 102q-37 -62 -87 -92t-129 -30q-148 0 -215.5 129.5t-67.5 422.5v713z" />
    <glyph glyph-name="gbreve" unicode="&#x11f;" horiz-adv-x="860" 
d="M574 1823h64v-13q0 -88 -48.5 -139.5t-141.5 -51.5t-142 50.5t-49 138.5v15h64q1 -113 127 -113t126 113zM563 1050q0 225 -35.5 281t-108 56t-104 -54t-36 -134t-4.5 -147v-441q0 -193 33.5 -274.5t125.5 -81.5q48 1 74 27q55 56 55 332v436zM190.5 1376.5
q64.5 141.5 198.5 141.5t174 -106v88h149v-1403q0 -223 -166 -301q-65 -31 -136 -31t-148.5 24t-129.5 64l57 115q98 -73 220 -73q77 0 115.5 50.5t38.5 134.5v165q-30 -67 -75.5 -92.5t-107.5 -25.5q-172 0 -223 194q-31 122 -31 311v381q0 222 64.5 363.5z" />
    <glyph glyph-name="Gdotaccent" unicode="&#x120;" horiz-adv-x="889" 
d="M383 1988h159v-133h-159v133zM134 1245q0 273 54 380q78 157 257 157q115 0 176 -45t79 -98q34 -99 40.5 -188.5t6.5 -203.5v-147h-152v272q0 150 -30 219t-119.5 69t-126 -89.5t-36.5 -309.5v-718q0 -249 32 -345t126 -96t126 97t32 342v222h-151v127h299v-890h-98
l-16 102q-37 -62 -87 -92t-129 -30q-148 0 -215.5 129.5t-67.5 422.5v713z" />
    <glyph glyph-name="gdotaccent" unicode="&#x121;" horiz-adv-x="860" 
d="M377 1728h159v-133h-159v133zM563 1050q0 225 -35.5 281t-108 56t-104 -54t-36 -134t-4.5 -147v-441q0 -193 33.5 -274.5t125.5 -81.5q48 1 74 27q55 56 55 332v436zM190.5 1376.5q64.5 141.5 198.5 141.5t174 -106v88h149v-1403q0 -223 -166 -301q-65 -31 -136 -31
t-148.5 24t-129.5 64l57 115q98 -73 220 -73q77 0 115.5 50.5t38.5 134.5v165q-30 -67 -75.5 -92.5t-107.5 -25.5q-172 0 -223 194q-31 122 -31 311v381q0 222 64.5 363.5z" />
    <glyph glyph-name="Gcommaaccent" unicode="&#x122;" horiz-adv-x="889" 
d="M368 -147h197v-183l-78 -282h-62l43 273h-100v192zM134 1245q0 273 54 380q78 157 257 157q115 0 176 -45t79 -98q34 -99 40.5 -188.5t6.5 -203.5v-147h-152v272q0 150 -30 219t-119.5 69t-126 -89.5t-36.5 -309.5v-718q0 -249 32 -345t126 -96t126 97t32 342v222h-151
v127h299v-890h-98l-16 102q-37 -62 -87 -92t-129 -30q-148 0 -215.5 129.5t-67.5 422.5v713z" />
    <glyph glyph-name="gcommaaccent" unicode="&#x123;" horiz-adv-x="860" 
d="M310 2063h197v-183l-78 -282h-62l43 273h-100v192zM563 1050q0 225 -35.5 281t-108 56t-104 -54t-36 -134t-4.5 -147v-441q0 -193 33.5 -274.5t125.5 -81.5q48 1 74 27q55 56 55 332v436zM190.5 1376.5q64.5 141.5 198.5 141.5t174 -106v88h149v-1403q0 -223 -166 -301
q-65 -31 -136 -31t-148.5 24t-129.5 64l57 115q98 -73 220 -73q77 0 115.5 50.5t38.5 134.5v165q-30 -67 -75.5 -92.5t-107.5 -25.5q-172 0 -223 194q-31 122 -31 311v381q0 222 64.5 363.5z" />
    <glyph glyph-name="Hcircumflex" unicode="&#x124;" horiz-adv-x="940" 
d="M631 1760h149v-1760h-149v886h-322v-886h-149v1760h149v-762h322v762zM390 2091h166l120 -254h-117l-86 175l-86 -175h-118z" />
    <glyph glyph-name="hcircumflex" unicode="&#x125;" horiz-adv-x="923" 
d="M502 1381q-192 0 -193 -190v-1191h-149v1783h149v-430q20 67 89.5 116.5t162.5 49.5t152.5 -77t59.5 -231v-1211h-150v1201q0 102 -35.5 141t-85.5 39zM380 2094h166l120 -254h-117l-86 175l-86 -175h-118z" />
    <glyph glyph-name="Hbar" unicode="&#x126;" horiz-adv-x="932" 
d="M309 1416v-418h322v418h-322zM631 1760h149v-262h120v-82h-120v-1416h-149v886h-322v-886h-149v1416h-105v82h105v262h149v-262h322v262z" />
    <glyph glyph-name="hbar" unicode="&#x127;" horiz-adv-x="924" 
d="M502 1381q-192 0 -193 -190v-1191h-149v1561h-160v121h160v101h149v-101h156v-121h-156v-208q20 67 89.5 116.5t162.5 49.5t152.5 -77t59.5 -231v-1211h-150v1201q0 102 -35.5 141t-85.5 39z" />
    <glyph glyph-name="Itilde" unicode="&#x128;" horiz-adv-x="504" 
d="M-40 1945q28 97 70.5 116t92 19t142 -37t113.5 -37h4q17 3 29.5 16.5t26.5 54.5l105 -28l-9 -26q-29 -91 -58.5 -118t-78.5 -27t-139 41t-118.5 41t-44.5 -4t-42 -57zM178 1760h149v-1760h-149v1760z" />
    <glyph glyph-name="itilde" unicode="&#x129;" horiz-adv-x="474" 
d="M-65 1685q28 97 70.5 116t92 19t142 -37t113.5 -37h4q17 3 29.5 16.5t26.5 54.5l105 -28l-9 -26q-29 -91 -58.5 -118t-78.5 -27t-139 41t-118.5 41t-44.5 -4t-42 -57zM162 1500h150v-1500h-150v1500z" />
    <glyph glyph-name="Imacron" unicode="&#x12a;" horiz-adv-x="504" 
d="M-6 1953h495v-113h-495v113zM178 1760h149v-1760h-149v1760z" />
    <glyph glyph-name="imacron" unicode="&#x12b;" horiz-adv-x="474" 
d="M-31 1693h495v-113h-495v113zM162 1500h150v-1500h-150v1500z" />
    <glyph glyph-name="Ibreve" unicode="&#x12c;" horiz-adv-x="504" 
d="M376 2083h64v-13q0 -88 -48.5 -139.5t-141.5 -51.5t-142 50.5t-49 138.5v15h64q1 -113 127 -113t126 113zM178 1760h149v-1760h-149v1760z" />
    <glyph glyph-name="ibreve" unicode="&#x12d;" horiz-adv-x="474" 
d="M351 1823h64v-13q0 -88 -48.5 -139.5t-141.5 -51.5t-142 50.5t-49 138.5v15h64q1 -113 127 -113t126 113zM162 1500h150v-1500h-150v1500z" />
    <glyph glyph-name="Iogonek" unicode="&#x12e;" horiz-adv-x="504" 
d="M384 -401q-44 -20 -128 -20q-193 0 -193 145q0 70 44 145t132 141h64q-73 -62 -109.5 -129.5t-36.5 -122.5q0 -87 108 -87q52 0 85 10t34 11v-93zM178 1760h149v-1760h-149v1760z" />
    <glyph glyph-name="iogonek" unicode="&#x12f;" horiz-adv-x="474" 
d="M154 1728h159v-133h-159v133zM380 -401q-44 -20 -128 -20q-193 0 -193 145q0 70 44 145t132 141h64q-73 -62 -109.5 -129.5t-36.5 -122.5q0 -87 108 -87q52 0 85 10t34 11v-93zM162 1500h150v-1500h-150v1500z" />
    <glyph glyph-name="Idotaccent" unicode="&#x130;" horiz-adv-x="504" 
d="M179 1988h159v-133h-159v133zM178 1760h149v-1760h-149v1760z" />
    <glyph glyph-name="dotlessi" unicode="&#x131;" horiz-adv-x="474" 
d="M162 1500h150v-1500h-150v1500z" />
    <glyph glyph-name="IJ" unicode="&#x132;" horiz-adv-x="1302" 
d="M1001 1760h149v-1340q0 -230 -62.5 -335.5t-213.5 -105.5t-213.5 97.5t-62.5 312.5v151h151v-209q0 -139 29 -177.5t51.5 -44.5t49.5 -6q106 0 117 139q5 56 5 107v1411zM178 1760h149v-1760h-149v1760z" />
    <glyph glyph-name="ij" unicode="&#x133;" horiz-adv-x="978" 
d="M669 1782h149v-144h-149v144zM766 -185q-22 -18 -45 -28.5t-75 -10.5t-82 6h-4v108q20 -4 38 -4t34 3q36 6 36 67v1544h149v-1534q-1 -111 -51 -151zM162 1500h150v-1500h-150v1500zM162 1782h149v-144h-149v144z" />
    <glyph glyph-name="Jcircumflex" unicode="&#x134;" horiz-adv-x="798" 
d="M497 1760h149v-1340q0 -230 -62.5 -335.5t-213.5 -105.5t-213.5 97.5t-62.5 312.5v151h151v-209q0 -139 29 -177.5t51.5 -44.5t49.5 -6q106 0 117 139q5 56 5 107v1411zM471 2091h166l120 -254h-117l-86 175l-86 -175h-118z" />
    <glyph glyph-name="jcircumflex" unicode="&#x135;" horiz-adv-x="513" 
d="M352 34q0 -191 -170 -191q-30 0 -66 5l-21 2v108q5 0 30.5 -2t40.5 1q37 6 37 67v1476h149v-1466zM207 1831h166l120 -254h-117l-86 175l-86 -175h-118z" />
    <glyph glyph-name="Kcommaaccent" unicode="&#x136;" horiz-adv-x="827" 
d="M336 -147h197v-183l-78 -282h-62l43 273h-100v192zM664 1760h144l-362 -869l385 -891h-154l-366 860v-860h-151v1760h149v-867z" />
    <glyph glyph-name="kcommaaccent" unicode="&#x137;" horiz-adv-x="799" 
d="M312 -147h197v-183l-78 -282h-62l43 273h-100v192zM161 1783h149v-1023l331 740h149l-341 -744l359 -756h-156l-342 742v-742h-149v1783z" />
    <glyph glyph-name="kgreenlandic" unicode="&#x138;" horiz-adv-x="799" 
d="M161 1500h149v-740l331 740h149l-341 -744l359 -756h-156l-342 742v-742h-149v1500z" />
    <glyph glyph-name="Lacute" unicode="&#x139;" horiz-adv-x="639" 
d="M160 1760h149v-1642h312v-118h-461v1760zM170 1963l398 158v-144l-398 -83v69z" />
    <glyph glyph-name="lacute" unicode="&#x13a;" horiz-adv-x="470" 
d="M160 1783h150v-1783h-150v1783zM61 1963l398 158v-144l-398 -83v69z" />
    <glyph glyph-name="Lcommaaccent" unicode="&#x13b;" horiz-adv-x="639" 
d="M314 -147h197v-183l-78 -282h-62l43 273h-100v192zM160 1760h149v-1642h312v-118h-461v1760z" />
    <glyph glyph-name="lcommaaccent" unicode="&#x13c;" horiz-adv-x="470" 
d="M147 -147h197v-183l-78 -282h-62l43 273h-100v192zM160 1783h150v-1783h-150v1783z" />
    <glyph glyph-name="Lcaron" unicode="&#x13d;" horiz-adv-x="708" 
d="M160 1760h149v-1642h312v-118h-461v1760zM589 1764h198v-184l-79 -282h-61l42 273h-100v193z" />
    <glyph glyph-name="lcaron" unicode="&#x13e;" horiz-adv-x="470" 
d="M531 1807h271v-193l-114 -426h-106l91 417h-142v202zM160 1783h150v-1783h-150v1783z" />
    <glyph glyph-name="Ldot" unicode="&#x13f;" horiz-adv-x="639" 
d="M502 990h170v-175h-170v175zM160 1760h149v-1642h312v-118h-461v1760z" />
    <glyph glyph-name="ldot" unicode="&#x140;" horiz-adv-x="470" 
d="M505 994h170v-175h-170v175zM160 1783h150v-1783h-150v1783z" />
    <glyph glyph-name="Lslash" unicode="&#x141;" horiz-adv-x="705" 
d="M160 1760h149v-709l188 82v-122l-188 -82v-811h312v-118h-461v864l-161 -70v122l161 70v774z" />
    <glyph glyph-name="lslash" unicode="&#x142;" horiz-adv-x="731" 
d="M254 1783h150v-724l206 94v-143l-206 -94v-916h-150v848l-155 -70v143l155 70v792z" />
    <glyph glyph-name="Nacute" unicode="&#x143;" horiz-adv-x="971" 
d="M681 1760h130v-1760h-116l-405 1326l10 -476v-850h-140v1760h104l432 -1361l-15 606v755zM308 1963l398 158v-144l-398 -83v69z" />
    <glyph glyph-name="nacute" unicode="&#x144;" horiz-adv-x="922" 
d="M287 1703l398 158v-144l-398 -83v69zM309 1353q20 67 88.5 116.5t161.5 49.5t153 -77t60 -231v-1211h-149v1223q0 87 -39.5 125.5t-105.5 38.5q-169 0 -169 -167v-1220h-149v1500h149v-147z" />
    <glyph glyph-name="Ncommaaccent" unicode="&#x145;" horiz-adv-x="971" 
d="M397 -147h197v-183l-78 -282h-62l43 273h-100v192zM681 1760h130v-1760h-116l-405 1326l10 -476v-850h-140v1760h104l432 -1361l-15 606v755z" />
    <glyph glyph-name="ncommaaccent" unicode="&#x146;" horiz-adv-x="922" 
d="M373 -147h197v-183l-78 -282h-62l43 273h-100v192zM309 1353q20 67 88.5 116.5t161.5 49.5t153 -77t60 -231v-1211h-149v1223q0 87 -39.5 125.5t-105.5 38.5q-169 0 -169 -167v-1220h-149v1500h149v-147z" />
    <glyph glyph-name="Ncaron" unicode="&#x147;" horiz-adv-x="971" 
d="M681 1760h130v-1760h-116l-405 1326l10 -476v-850h-140v1760h104l432 -1361l-15 606v755zM567 2090h117l-120 -253h-166l-121 253h118l86 -175z" />
    <glyph glyph-name="ncaron" unicode="&#x148;" horiz-adv-x="922" 
d="M547 1830h117l-120 -253h-166l-121 253h118l86 -175zM309 1353q20 67 88.5 116.5t161.5 49.5t153 -77t60 -231v-1211h-149v1223q0 87 -39.5 125.5t-105.5 38.5q-169 0 -169 -167v-1220h-149v1500h149v-147z" />
    <glyph glyph-name="Omacron" unicode="&#x14c;" horiz-adv-x="887" 
d="M194 2019h516v-115h-516v115zM604 1280q0 210 -30.5 295t-124.5 85t-130 -87.5t-36 -291.5v-762q0 -243 25 -311t55.5 -87t80.5 -19t80 19t55 86.5t25 311.5v761zM134 1268q0 319 80 416.5t246 97.5t229 -108q42 -73 53 -170t11 -236v-749q0 -229 -27.5 -322.5
t-61.5 -133.5q-72 -83 -219 -83q-219 0 -274 189q-37 124 -37 350v749z" />
    <glyph glyph-name="omacron" unicode="&#x14d;" horiz-adv-x="845" 
d="M168 1755h516v-115h-516v115zM568 1053q0 258 -68 311q-30 23 -72 23q-114 0 -136 -127q-15 -79 -15 -207v-590q0 -221 37.5 -285.5t119.5 -64.5t108 91.5t26 258.5v590zM128 1018q0 260 49 358t133 126q50 16 112 16q253 0 284 -275q11 -94 11 -225v-503
q0 -177 -7.5 -229t-14.5 -90q-40 -214 -278 -214q-97 0 -155 40q-110 76 -127 279q-7 90 -7 214v503z" />
    <glyph glyph-name="Obreve" unicode="&#x14e;" horiz-adv-x="887" 
d="M568 2082h64v-13q0 -88 -48.5 -139.5t-141.5 -51.5t-142 50.5t-49 138.5v15h64q1 -113 127 -113t126 113zM604 1280q0 210 -30.5 295t-124.5 85t-130 -87.5t-36 -291.5v-762q0 -243 25 -311t55.5 -87t80.5 -19t80 19t55 86.5t25 311.5v761zM134 1268q0 319 80 416.5
t246 97.5t229 -108q42 -73 53 -170t11 -236v-749q0 -229 -27.5 -322.5t-61.5 -133.5q-72 -83 -219 -83q-219 0 -274 189q-37 124 -37 350v749z" />
    <glyph glyph-name="obreve" unicode="&#x14f;" horiz-adv-x="845" 
d="M547 1823h64v-13q0 -88 -48.5 -139.5t-141.5 -51.5t-142 50.5t-49 138.5v15h64q1 -113 127 -113t126 113zM568 1053q0 258 -68 311q-30 23 -72 23q-114 0 -136 -127q-15 -79 -15 -207v-590q0 -221 37.5 -285.5t119.5 -64.5t108 91.5t26 258.5v590zM128 1018q0 260 49 358
t133 126q50 16 112 16q253 0 284 -275q11 -94 11 -225v-503q0 -177 -7.5 -229t-14.5 -90q-40 -214 -278 -214q-97 0 -155 40q-110 76 -127 279q-7 90 -7 214v503z" />
    <glyph glyph-name="Ohungarumlaut" unicode="&#x150;" horiz-adv-x="887" 
d="M604 1280q0 210 -30.5 295t-124.5 85t-130 -87.5t-36 -291.5v-762q0 -243 25 -311t55.5 -87t80.5 -19t80 19t55 86.5t25 311.5v761zM134 1268q0 319 80 416.5t246 97.5t229 -108q42 -73 53 -170t11 -236v-749q0 -229 -27.5 -322.5t-61.5 -133.5q-72 -83 -219 -83
q-219 0 -274 189q-37 124 -37 350v749zM231 1949l107 391l164 -78l-202 -342zM482 1949l164 391l167 -89l-263 -342z" />
    <glyph glyph-name="ohungarumlaut" unicode="&#x151;" horiz-adv-x="845" 
d="M568 1053q0 258 -68 311q-30 23 -72 23q-114 0 -136 -127q-15 -79 -15 -207v-590q0 -221 37.5 -285.5t119.5 -64.5t108 91.5t26 258.5v590zM128 1018q0 260 49 358t133 126q50 16 112 16q253 0 284 -275q11 -94 11 -225v-503q0 -177 -7.5 -229t-14.5 -90
q-40 -214 -278 -214q-97 0 -155 40q-110 76 -127 279q-7 90 -7 214v503zM222 1690l107 391l164 -78l-202 -342zM473 1690l164 391l167 -89l-263 -342z" />
    <glyph glyph-name="OE" unicode="&#x152;" horiz-adv-x="1168" 
d="M606 126v1508h-153q-99 0 -134.5 -76t-35.5 -276v-764q0 -291 43 -341.5t120 -50.5h160zM453 1760h629v-116h-327v-688h308v-120h-308v-718h325v-118h-634q-146 0 -220 76q-92 95 -92 443v750q0 196 25 282.5t59 124.5q76 84 235 84z" />
    <glyph glyph-name="oe" unicode="&#x153;" horiz-adv-x="1256" 
d="M988 874v264q0 133 -10 157.5t-17 41.5t-30.5 33.5t-63.5 16.5q-109 0 -134 -121q-16 -77 -16 -203v-189h271zM567 1053q0 205 -35.5 270t-104.5 65t-109.5 -57t-40.5 -278v-590q0 -220 36.5 -285t111.5 -65q127 0 139 232q2 48 3 118v590zM643 1396q77 122 217 122
t194 -71q30 -39 48 -77q35 -74 35 -352v-16v-248h-421v-304q0 -233 35 -285t102 -52t94.5 42t33.5 106.5t6 177.5v117h145v-51q0 -221 -15 -304q-26 -148 -125 -194q-53 -25 -133 -25q-148 0 -223 124q-74 -124 -211 -124q-170 0 -233 112q-42 76 -53 177t-11 244v503
q0 262 49 359t133 125q50 16 115 16q146 0 218 -122z" />
    <glyph glyph-name="Racute" unicode="&#x154;" horiz-adv-x="903" 
d="M623 1335q0 133 -12.5 195t-42 84t-93.5 22h-167v-668h156q76 0 103.5 26t41.5 86.5t14 241.5v13zM160 1760h299q181 0 242 -76q46 -57 58.5 -139.5t12.5 -239.5t-36.5 -256.5t-125.5 -123.5q35 -6 59 -21.5t43 -52.5q59 -115 59 -566q0 -187 3.5 -215.5t18.5 -69.5h-148
q-16 30 -19 113.5t-3 266.5v194q0 184 -22.5 234t-133.5 50l-158 10v-868h-149v1760zM284 1963l398 158v-144l-398 -83v69z" />
    <glyph glyph-name="racute" unicode="&#x155;" horiz-adv-x="617" 
d="M565 1518q4 0 4 -32t-1 -64v-31q-79 0 -139.5 -31.5t-118.5 -113.5v-1246h-149v1500h149v-167q26 88 91.5 136.5t163.5 48.5zM160 1703l398 158v-144l-398 -83v69z" />
    <glyph glyph-name="Rcommaaccent" unicode="&#x156;" horiz-adv-x="903" 
d="M374 -147h197v-183l-78 -282h-62l43 273h-100v192zM623 1335q0 133 -12.5 195t-42 84t-93.5 22h-167v-668h156q76 0 103.5 26t41.5 86.5t14 241.5v13zM160 1760h299q181 0 242 -76q46 -57 58.5 -139.5t12.5 -239.5t-36.5 -256.5t-125.5 -123.5q35 -6 59 -21.5t43 -52.5
q59 -115 59 -566q0 -187 3.5 -215.5t18.5 -69.5h-148q-16 30 -19 113.5t-3 266.5v194q0 184 -22.5 234t-133.5 50l-158 10v-868h-149v1760z" />
    <glyph glyph-name="rcommaaccent" unicode="&#x157;" horiz-adv-x="617" 
d="M169 -147h197v-183l-78 -282h-62l43 273h-100v192zM565 1518q4 0 4 -32t-1 -64v-31q-79 0 -139.5 -31.5t-118.5 -113.5v-1246h-149v1500h149v-167q26 88 91.5 136.5t163.5 48.5z" />
    <glyph glyph-name="Rcaron" unicode="&#x158;" horiz-adv-x="903" 
d="M623 1335q0 133 -12.5 195t-42 84t-93.5 22h-167v-668h156q76 0 103.5 26t41.5 86.5t14 241.5v13zM160 1760h299q181 0 242 -76q46 -57 58.5 -139.5t12.5 -239.5t-36.5 -256.5t-125.5 -123.5q35 -6 59 -21.5t43 -52.5q59 -115 59 -566q0 -187 3.5 -215.5t18.5 -69.5h-148
q-16 30 -19 113.5t-3 266.5v194q0 184 -22.5 234t-133.5 50l-158 10v-868h-149v1760zM544 2090h117l-120 -253h-166l-121 253h118l86 -175z" />
    <glyph glyph-name="rcaron" unicode="&#x159;" horiz-adv-x="617" 
d="M565 1518q4 0 4 -32t-1 -64v-31q-79 0 -139.5 -31.5t-118.5 -113.5v-1246h-149v1500h149v-167q26 88 91.5 136.5t163.5 48.5zM420 1830h117l-120 -253h-166l-121 253h118l86 -175z" />
    <glyph glyph-name="Sacute" unicode="&#x15a;" horiz-adv-x="795" 
d="M98 1490q15 143 84.5 217.5t217.5 74.5t206 -74q32 -40 50 -80q38 -81 39 -386v-99h-153v110q0 232 -15 281t-31 74q-29 46 -104 46q-152 0 -152 -283q0 -99 19 -134.5t28.5 -55.5t127.5 -138l96 -97q213 -219 213 -502.5t-81.5 -373.5t-241.5 -90q-246 0 -283 297
q-13 100 -13 246v183h152v-180q0 -238 31.5 -328t128.5 -90t123.5 58.5t29 141.5t2.5 178q0 196 -155 347l-102 97q-134 131 -179 220.5t-45 182t7 157.5zM252 1963l398 158v-144l-398 -83v69z" />
    <glyph glyph-name="sacute" unicode="&#x15b;" 
d="M120 1180q0 166 79.5 252t219.5 86t205 -111t65 -370v-80h-155v107q0 159 -27.5 238t-96 79t-104 -45.5t-35.5 -157.5v-6q0 -175 163 -333l77 -75q199 -199 199 -439q0 -160 -69 -252.5t-217 -92.5t-221.5 102t-73.5 325v129h153v-103q0 -317 138 -317q74 0 105 48
t31 170q0 181 -156 340l-79 80q-201 204 -201 426zM253 1703l398 158v-144l-398 -83v69z" />
    <glyph glyph-name="Scircumflex" unicode="&#x15c;" horiz-adv-x="795" 
d="M98 1490q15 143 84.5 217.5t217.5 74.5t206 -74q32 -40 50 -80q38 -81 39 -386v-99h-153v110q0 232 -15 281t-31 74q-29 46 -104 46q-152 0 -152 -283q0 -99 19 -134.5t28.5 -55.5t127.5 -138l96 -97q213 -219 213 -502.5t-81.5 -373.5t-241.5 -90q-246 0 -283 297
q-13 100 -13 246v183h152v-180q0 -238 31.5 -328t128.5 -90t123.5 58.5t29 141.5t2.5 178q0 196 -155 347l-102 97q-134 131 -179 220.5t-45 182t7 157.5zM342 2091h166l120 -254h-117l-86 175l-86 -175h-118z" />
    <glyph glyph-name="scircumflex" unicode="&#x15d;" 
d="M120 1180q0 166 79.5 252t219.5 86t205 -111t65 -370v-80h-155v107q0 159 -27.5 238t-96 79t-104 -45.5t-35.5 -157.5v-6q0 -175 163 -333l77 -75q199 -199 199 -439q0 -160 -69 -252.5t-217 -92.5t-221.5 102t-73.5 325v129h153v-103q0 -317 138 -317q74 0 105 48
t31 170q0 181 -156 340l-79 80q-201 204 -201 426zM343 1831h166l120 -254h-117l-86 175l-86 -175h-118z" />
    <glyph glyph-name="Scedilla" unicode="&#x15e;" horiz-adv-x="795" 
d="M265 -501q231 0 231 141q0 64 -46.5 106.5t-113.5 57.5l40 196h57l9 -147q179 -90 179 -242q0 -76 -77 -141.5t-192 -65.5q-40 0 -87 9v86zM98 1490q15 143 84.5 217.5t217.5 74.5t206 -74q32 -40 50 -80q38 -81 39 -386v-99h-153v110q0 232 -15 281t-31 74
q-29 46 -104 46q-152 0 -152 -283q0 -99 19 -134.5t28.5 -55.5t127.5 -138l96 -97q213 -219 213 -502.5t-81.5 -373.5t-241.5 -90q-246 0 -283 297q-13 100 -13 246v183h152v-180q0 -238 31.5 -328t128.5 -90t123.5 58.5t29 141.5t2.5 178q0 196 -155 347l-102 97
q-134 131 -179 220.5t-45 182t7 157.5z" />
    <glyph glyph-name="scedilla" unicode="&#x15f;" 
d="M275 -501q231 0 231 141q0 64 -46.5 106.5t-113.5 57.5l40 196h57l9 -147q179 -90 179 -242q0 -76 -77 -141.5t-192 -65.5q-40 0 -87 9v86zM120 1180q0 166 79.5 252t219.5 86t205 -111t65 -370v-80h-155v107q0 159 -27.5 238t-96 79t-104 -45.5t-35.5 -157.5v-6
q0 -175 163 -333l77 -75q199 -199 199 -439q0 -160 -69 -252.5t-217 -92.5t-221.5 102t-73.5 325v129h153v-103q0 -317 138 -317q74 0 105 48t31 170q0 181 -156 340l-79 80q-201 204 -201 426z" />
    <glyph glyph-name="Scaron" unicode="&#x160;" horiz-adv-x="795" 
d="M98 1490q15 143 84.5 217.5t217.5 74.5t206 -74q32 -40 50 -80q38 -81 39 -386v-99h-153v110q0 232 -15 281t-31 74q-29 46 -104 46q-152 0 -152 -283q0 -99 19 -134.5t28.5 -55.5t127.5 -138l96 -97q213 -219 213 -502.5t-81.5 -373.5t-241.5 -90q-246 0 -283 297
q-13 100 -13 246v183h152v-180q0 -238 31.5 -328t128.5 -90t123.5 58.5t29 141.5t2.5 178q0 196 -155 347l-102 97q-134 131 -179 220.5t-45 182t7 157.5zM511 2090h117l-120 -253h-166l-121 253h118l86 -175z" />
    <glyph glyph-name="scaron" unicode="&#x161;" 
d="M120 1180q0 166 79.5 252t219.5 86t205 -111t65 -370v-80h-155v107q0 159 -27.5 238t-96 79t-104 -45.5t-35.5 -157.5v-6q0 -175 163 -333l77 -75q199 -199 199 -439q0 -160 -69 -252.5t-217 -92.5t-221.5 102t-73.5 325v129h153v-103q0 -317 138 -317q74 0 105 48
t31 170q0 181 -156 340l-79 80q-201 204 -201 426zM512 1830h117l-120 -253h-166l-121 253h118l86 -175z" />
    <glyph glyph-name="Tcaron" unicode="&#x164;" horiz-adv-x="577" 
d="M40 1760h497v-116h-165v-1644h-148v1644h-184v116zM370 2090h117l-120 -253h-166l-121 253h118l86 -175z" />
    <glyph glyph-name="tcaron" unicode="&#x165;" horiz-adv-x="582" 
d="M195 1760h150v-254h177v-116h-177v-1181q0 -45 11 -62t41 -23t124 -6v-127h-104q-142 0 -183 50q-24 29 -31.5 68.5t-7.5 107.5v1173h-150v116h150v254zM609 1759h271v-193l-114 -426h-106l91 417h-142v202z" />
    <glyph glyph-name="Utilde" unicode="&#x168;" horiz-adv-x="911" 
d="M163 1946q28 97 70.5 116t92 19t142 -37t113.5 -37h4q17 3 29.5 16.5t26.5 54.5l105 -28l-9 -26q-29 -91 -58.5 -118t-78.5 -27t-139 41t-118.5 41t-44.5 -4t-42 -57zM616 1760h149v-1308q0 -248 -63 -360.5t-245 -112.5t-246.5 113t-64.5 360v1308h149v-1303
q0 -183 16 -244q30 -111 140 -111q90 0 127.5 51.5t37.5 302.5v1304z" />
    <glyph glyph-name="utilde" unicode="&#x169;" horiz-adv-x="924" 
d="M191 1685q28 97 70.5 116t92 19t142 -37t113.5 -37h4q17 3 29.5 16.5t26.5 54.5l105 -28l-9 -26q-29 -91 -58.5 -118t-78.5 -27t-139 41t-118.5 41t-44.5 -4t-42 -57zM300 292q0 -173 152 -173q74 0 118.5 49.5t44.5 134.5l-1 1197h150v-1500h-149v150
q-19 -68 -81.5 -119t-144.5 -51t-160 67.5t-78 237.5v1215h149v-1208z" />
    <glyph glyph-name="Umacron" unicode="&#x16a;" horiz-adv-x="911" 
d="M197 1954h495v-113h-495v113zM616 1760h149v-1308q0 -248 -63 -360.5t-245 -112.5t-246.5 113t-64.5 360v1308h149v-1303q0 -183 16 -244q30 -111 140 -111q90 0 127.5 51.5t37.5 302.5v1304z" />
    <glyph glyph-name="umacron" unicode="&#x16b;" horiz-adv-x="924" 
d="M225 1693h495v-113h-495v113zM300 292q0 -173 152 -173q74 0 118.5 49.5t44.5 134.5l-1 1197h150v-1500h-149v150q-19 -68 -81.5 -119t-144.5 -51t-160 67.5t-78 237.5v1215h149v-1208z" />
    <glyph glyph-name="Ubreve" unicode="&#x16c;" horiz-adv-x="911" 
d="M579 2084h64v-13q0 -88 -48.5 -139.5t-141.5 -51.5t-142 50.5t-49 138.5v15h64q1 -113 127 -113t126 113zM616 1760h149v-1308q0 -248 -63 -360.5t-245 -112.5t-246.5 113t-64.5 360v1308h149v-1303q0 -183 16 -244q30 -111 140 -111q90 0 127.5 51.5t37.5 302.5v1304z
" />
    <glyph glyph-name="ubreve" unicode="&#x16d;" horiz-adv-x="924" 
d="M607 1823h64v-13q0 -88 -48.5 -139.5t-141.5 -51.5t-142 50.5t-49 138.5v15h64q1 -113 127 -113t126 113zM300 292q0 -173 152 -173q74 0 118.5 49.5t44.5 134.5l-1 1197h150v-1500h-149v150q-19 -68 -81.5 -119t-144.5 -51t-160 67.5t-78 237.5v1215h149v-1208z" />
    <glyph glyph-name="Uring" unicode="&#x16e;" horiz-adv-x="911" 
d="M616 1760h149v-1308q0 -248 -63 -360.5t-245 -112.5t-246.5 113t-64.5 360v1308h149v-1303q0 -183 16 -244q30 -111 140 -111q90 0 127.5 51.5t37.5 302.5v1304zM565 1983q0 42 -26.5 72t-72.5 30t-72 -30.5t-26 -71.5t26 -71.5t72 -30.5t72.5 30t26.5 72zM340.5 1876
q-44.5 46 -44.5 106.5t44.5 106.5t125 46t124.5 -46t44 -107t-44 -106.5t-124.5 -45.5t-125 46z" />
    <glyph glyph-name="uring" unicode="&#x16f;" horiz-adv-x="924" 
d="M300 292q0 -173 152 -173q74 0 118.5 49.5t44.5 134.5l-1 1197h150v-1500h-149v150q-19 -68 -81.5 -119t-144.5 -51t-160 67.5t-78 237.5v1215h149v-1208zM582 1722q0 42 -26.5 72t-72.5 30t-72 -30.5t-26 -71.5t26 -71.5t72 -30.5t72.5 30t26.5 72zM357.5 1615
q-44.5 46 -44.5 106.5t44.5 106.5t125 46t124.5 -46t44 -107t-44 -106.5t-124.5 -45.5t-125 46z" />
    <glyph glyph-name="Uhungarumlaut" unicode="&#x170;" horiz-adv-x="911" 
d="M246 1951l107 391l164 -78l-202 -342zM497 1951l164 391l167 -89l-263 -342zM616 1760h149v-1308q0 -248 -63 -360.5t-245 -112.5t-246.5 113t-64.5 360v1308h149v-1303q0 -183 16 -244q30 -111 140 -111q90 0 127.5 51.5t37.5 302.5v1304z" />
    <glyph glyph-name="uhungarumlaut" unicode="&#x171;" horiz-adv-x="924" 
d="M274 1690l107 391l164 -78l-202 -342zM525 1690l164 391l167 -89l-263 -342zM300 292q0 -173 152 -173q74 0 118.5 49.5t44.5 134.5l-1 1197h150v-1500h-149v150q-19 -68 -81.5 -119t-144.5 -51t-160 67.5t-78 237.5v1215h149v-1208z" />
    <glyph glyph-name="Uogonek" unicode="&#x172;" horiz-adv-x="911" 
d="M616 1760h149v-1308q0 -248 -63 -360.5t-245 -112.5t-246.5 113t-64.5 360v1308h149v-1303q0 -183 16 -244q30 -111 140 -111q90 0 127.5 51.5t37.5 302.5v1304zM604 -401q-44 -20 -128 -20q-193 0 -193 145q0 70 44 145t132 141h64q-73 -62 -109.5 -129.5t-36.5 -122.5
q0 -87 108 -87q52 0 85 10t34 11v-93z" />
    <glyph glyph-name="uogonek" unicode="&#x173;" horiz-adv-x="924" 
d="M300 292q0 -173 152 -173q74 0 118.5 49.5t44.5 134.5l-1 1197h150v-1500h-149v150q-19 -68 -81.5 -119t-144.5 -51t-160 67.5t-78 237.5v1215h149v-1208zM806 -401q-44 -20 -128 -20q-193 0 -193 145q0 70 44 145t132 141h64q-73 -62 -109.5 -129.5t-36.5 -122.5
q0 -87 108 -87q52 0 85 10t34 11v-93z" />
    <glyph glyph-name="Wcircumflex" unicode="&#x174;" horiz-adv-x="1338" 
d="M1127 1760h141l-213 -1760h-147l-218 1448l-234 -1448h-137l-249 1760h146l184 -1438l220 1438h124l235 -1438zM609 2091h166l120 -254h-117l-86 175l-86 -175h-118z" />
    <glyph glyph-name="wcircumflex" unicode="&#x175;" horiz-adv-x="1075" 
d="M885 1500h132l-174 -1500h-148l-147 1283l-173 -1283h-142l-176 1500h137l90 -887l24 -311h12l30 312l126 886h127l137 -854l40 -344h10l20 346zM464 1831h166l120 -254h-117l-86 175l-86 -175h-118z" />
    <glyph glyph-name="Ycircumflex" unicode="&#x176;" horiz-adv-x="802" 
d="M326 2091h166l120 -254h-117l-86 175l-86 -175h-118zM624 1760h154l-287 -987v-773h-149v772l-318 988h150l241 -778h3z" />
    <glyph glyph-name="ycircumflex" unicode="&#x177;" horiz-adv-x="733" 
d="M294 1831h166l120 -254h-117l-86 175l-86 -175h-118zM541 1500h149l-239 -1497q-23 -154 -53 -191t-67.5 -43.5t-76.5 -6.5h-124v128h55q107 0 123 11q14 14 14 40t-3 44t-8 53l-250 1462h150l119 -793l48 -408h13l43 408z" />
    <glyph glyph-name="Ydieresis" unicode="&#x178;" horiz-adv-x="802" 
d="M76 2005h182v-133h-182v133zM506 2005h182v-133h-182v133zM624 1760h154l-287 -987v-773h-149v772l-318 988h150l241 -778h3z" />
    <glyph glyph-name="Zacute" unicode="&#x179;" horiz-adv-x="691" 
d="M121 1760h482v-102l-341 -1540h335v-118h-485v125l339 1519h-330v116zM238 1963l398 158v-144l-398 -83v69z" />
    <glyph glyph-name="zacute" unicode="&#x17a;" horiz-adv-x="635" 
d="M107 1500h463v-93l-334 -1277h314v-130h-468v108l329 1263h-304v129zM191 1703l398 158v-144l-398 -83v69z" />
    <glyph glyph-name="Zdotaccent" unicode="&#x17b;" horiz-adv-x="691" 
d="M320 1988h159v-133h-159v133zM121 1760h482v-102l-341 -1540h335v-118h-485v125l339 1519h-330v116z" />
    <glyph glyph-name="zdotaccent" unicode="&#x17c;" horiz-adv-x="635" 
d="M292 1728h159v-133h-159v133zM107 1500h463v-93l-334 -1277h314v-130h-468v108l329 1263h-304v129z" />
    <glyph glyph-name="Zcaron" unicode="&#x17d;" horiz-adv-x="691" 
d="M121 1760h482v-102l-341 -1540h335v-118h-485v125l339 1519h-330v116zM498 2090h117l-120 -253h-166l-121 253h118l86 -175z" />
    <glyph glyph-name="zcaron" unicode="&#x17e;" horiz-adv-x="635" 
d="M107 1500h463v-93l-334 -1277h314v-130h-468v108l329 1263h-304v129zM450 1830h117l-120 -253h-166l-121 253h118l86 -175z" />
    <glyph glyph-name="florin" unicode="&#x192;" horiz-adv-x="767" 
d="M316 1539q0 248 180 248q62 0 156 -35v-122q-77 24 -119 24t-61 -31t-19 -102v-269h214v-106h-214v-925q0 -233 -201 -233q-58 0 -137 20v122q40 -2 55 -2q94 0 120 33t26 144v841h-209v106h209v287z" />
    <glyph glyph-name="uni01C4" unicode="&#x1c4;" horiz-adv-x="1594" 
d="M1024 1760h482v-102l-341 -1540h335v-118h-485v125l339 1519h-330v116zM1401 2090h117l-120 -253h-166l-121 253h118l86 -175zM621 1274q0 192 -44 277t-138 85h-132v-1508h123q124 0 162 113q30 93 30 278zM159 1760h271q237 0 302 -194q38 -113 38 -308l1 -754
q0 -275 -78 -389.5t-269 -114.5h-265v1760z" />
    <glyph glyph-name="uni01C5" unicode="&#x1c5;" horiz-adv-x="1538" 
d="M1010 1500h463v-93l-334 -1277h314v-130h-468v108l329 1263h-304v129zM1353 1830h117l-120 -253h-166l-121 253h118l86 -175zM621 1274q0 192 -44 277t-138 85h-132v-1508h123q124 0 162 113q30 93 30 278zM159 1760h271q237 0 302 -194q38 -113 38 -308l1 -754
q0 -275 -78 -389.5t-269 -114.5h-265v1760z" />
    <glyph glyph-name="uni01C6" unicode="&#x1c6;" horiz-adv-x="1505" 
d="M977 1500h463v-93l-334 -1277h314v-130h-468v108l329 1263h-304v129zM1320 1830h117l-120 -253h-166l-121 253h118l86 -175zM567 1037q0 193 -29.5 270.5t-114.5 77.5t-114 -79.5t-29 -275.5v-594q0 -206 32.5 -264t96.5 -58t91.5 23.5t47 79t19.5 217.5v603zM566 1783
h150v-1783h-150v114q-52 -125 -199 -125q-167 1 -212 199q-25 109 -25 293v527q0 302 72.5 406t204.5 104q51 0 94.5 -36.5t64.5 -88.5v390z" />
    <glyph glyph-name="uni01C7" unicode="&#x1c7;" horiz-adv-x="1437" 
d="M1136 1760h149v-1340q0 -230 -62.5 -335.5t-213.5 -105.5t-213.5 97.5t-62.5 312.5v151h151v-209q0 -139 29 -177.5t51.5 -44.5t49.5 -6q106 0 117 139q5 56 5 107v1411zM160 1760h149v-1642h312v-118h-461v1760z" />
    <glyph glyph-name="uni01C8" unicode="&#x1c8;" horiz-adv-x="1143" 
d="M834 1782h149v-144h-149v144zM931 -185q-22 -18 -45 -28.5t-75 -10.5t-82 6h-4v108q20 -4 38 -4t34 3q36 6 36 67v1544h149v-1534q-1 -111 -51 -151zM160 1760h149v-1642h312v-118h-461v1760z" />
    <glyph glyph-name="uni01C9" unicode="&#x1c9;" horiz-adv-x="974" 
d="M665 1782h149v-144h-149v144zM762 -185q-22 -18 -45 -28.5t-75 -10.5t-82 6h-4v108q20 -4 38 -4t34 3q36 6 36 67v1544h149v-1534q-1 -111 -51 -151zM160 1783h150v-1783h-150v1783z" />
    <glyph glyph-name="uni01CA" unicode="&#x1ca;" horiz-adv-x="1769" 
d="M1468 1760h149v-1340q0 -230 -62.5 -335.5t-213.5 -105.5t-213.5 97.5t-62.5 312.5v151h151v-209q0 -139 29 -177.5t51.5 -44.5t49.5 -6q106 0 117 139q5 56 5 107v1411zM681 1760h130v-1760h-116l-405 1326l10 -476v-850h-140v1760h104l432 -1361l-15 606v755z" />
    <glyph glyph-name="uni01CB" unicode="&#x1cb;" horiz-adv-x="1475" 
d="M1166 1782h149v-144h-149v144zM1263 -185q-22 -18 -45 -28.5t-75 -10.5t-82 6h-4v108q20 -4 38 -4t34 3q36 6 36 67v1544h149v-1534q-1 -111 -51 -151zM681 1760h130v-1760h-116l-405 1326l10 -476v-850h-140v1760h104l432 -1361l-15 606v755z" />
    <glyph glyph-name="uni01CC" unicode="&#x1cc;" horiz-adv-x="1426" 
d="M1117 1782h149v-144h-149v144zM1214 -185q-22 -18 -45 -28.5t-75 -10.5t-82 6h-4v108q20 -4 38 -4t34 3q36 6 36 67v1544h149v-1534q-1 -111 -51 -151zM309 1353q20 67 88.5 116.5t161.5 49.5t153 -77t60 -231v-1211h-149v1223q0 87 -39.5 125.5t-105.5 38.5
q-169 0 -169 -167v-1220h-149v1500h149v-147z" />
    <glyph glyph-name="uni01F1" unicode="&#x1f1;" horiz-adv-x="1594" 
d="M1024 1760h482v-102l-341 -1540h335v-118h-485v125l339 1519h-330v116zM621 1274q0 192 -44 277t-138 85h-132v-1508h123q124 0 162 113q30 93 30 278zM159 1760h271q237 0 302 -194q38 -113 38 -308l1 -754q0 -275 -78 -389.5t-269 -114.5h-265v1760z" />
    <glyph glyph-name="uni01F2" unicode="&#x1f2;" horiz-adv-x="1538" 
d="M1010 1500h463v-93l-334 -1277h314v-130h-468v108l329 1263h-304v129zM621 1274q0 192 -44 277t-138 85h-132v-1508h123q124 0 162 113q30 93 30 278zM159 1760h271q237 0 302 -194q38 -113 38 -308l1 -754q0 -275 -78 -389.5t-269 -114.5h-265v1760z" />
    <glyph glyph-name="uni01F3" unicode="&#x1f3;" horiz-adv-x="1505" 
d="M977 1500h463v-93l-334 -1277h314v-130h-468v108l329 1263h-304v129zM567 1037q0 193 -29.5 270.5t-114.5 77.5t-114 -79.5t-29 -275.5v-594q0 -206 32.5 -264t96.5 -58t91.5 23.5t47 79t19.5 217.5v603zM566 1783h150v-1783h-150v114q-52 -125 -199 -125
q-167 1 -212 199q-25 109 -25 293v527q0 302 72.5 406t204.5 104q51 0 94.5 -36.5t64.5 -88.5v390z" />
    <glyph glyph-name="uni01F4" unicode="&#x1f4;" horiz-adv-x="889" 
d="M282 1963l398 158v-144l-398 -83v69zM134 1245q0 273 54 380q78 157 257 157q115 0 176 -45t79 -98q34 -99 40.5 -188.5t6.5 -203.5v-147h-152v272q0 150 -30 219t-119.5 69t-126 -89.5t-36.5 -309.5v-718q0 -249 32 -345t126 -96t126 97t32 342v222h-151v127h299v-890
h-98l-16 102q-37 -62 -87 -92t-129 -30q-148 0 -215.5 129.5t-67.5 422.5v713z" />
    <glyph glyph-name="uni01F5" unicode="&#x1f5;" horiz-adv-x="860" 
d="M276 1703l398 158v-144l-398 -83v69zM563 1050q0 225 -35.5 281t-108 56t-104 -54t-36 -134t-4.5 -147v-441q0 -193 33.5 -274.5t125.5 -81.5q48 1 74 27q55 56 55 332v436zM190.5 1376.5q64.5 141.5 198.5 141.5t174 -106v88h149v-1403q0 -223 -166 -301
q-65 -31 -136 -31t-148.5 24t-129.5 64l57 115q98 -73 220 -73q77 0 115.5 50.5t38.5 134.5v165q-30 -67 -75.5 -92.5t-107.5 -25.5q-172 0 -223 194q-31 122 -31 311v381q0 222 64.5 363.5z" />
    <glyph glyph-name="uni0200" unicode="&#x200;" horiz-adv-x="860" 
d="M316 2172l131 97l151 -325l-67 -47zM13 2172l135 97l188 -325l-67 -47zM339 1760h152l313 -1760h-144l-58 357h-352l-53 -357h-141zM582 480l-162 996h-2l-149 -996h313z" />
    <glyph glyph-name="uni0201" unicode="&#x201;" horiz-adv-x="874" 
d="M355 1912l131 97l151 -325l-67 -47zM52 1912l135 97l188 -325l-67 -47zM162 1051q0 163 9 210.5t19.5 83t25 58.5t36 47t49.5 37.5t65.5 22t83.5 8.5t83 -8t65 -18t48.5 -35.5t34.5 -44.5q48 -65 48 -369v-1043h-149v112q-13 -40 -64.5 -81.5t-132.5 -41.5
q-118 0 -178.5 99.5t-60.5 288.5v192q0 103 49.5 160t85.5 80q95 60 191 100.5t110 46.5v168q0 145 -11 171t-18 42q-22 50 -106 50t-108.5 -70.5t-24.5 -268.5v-37h-150v40zM580 837q-165 -75 -190.5 -94t-45.5 -39q-52 -52 -52 -195v-119q0 -155 24 -216t86 -61t110 31
t68 67v626z" />
    <glyph glyph-name="uni0202" unicode="&#x202;" horiz-adv-x="860" 
d="M221 1856v20q0 83 47 137t140.5 54t143 -47.5t51.5 -135.5v-15l-64 -3q-2 109 -129 109q-125 0 -125 -112v-4zM339 1760h152l313 -1760h-144l-58 357h-352l-53 -357h-141zM582 480l-162 996h-2l-149 -996h313z" />
    <glyph glyph-name="uni0203" unicode="&#x203;" horiz-adv-x="874" 
d="M260 1596v20q0 83 47 137t140.5 54t143 -47.5t51.5 -135.5v-15l-64 -3q-2 109 -129 109q-125 0 -125 -112v-4zM162 1051q0 163 9 210.5t19.5 83t25 58.5t36 47t49.5 37.5t65.5 22t83.5 8.5t83 -8t65 -18t48.5 -35.5t34.5 -44.5q48 -65 48 -369v-1043h-149v112
q-13 -40 -64.5 -81.5t-132.5 -41.5q-118 0 -178.5 99.5t-60.5 288.5v192q0 103 49.5 160t85.5 80q95 60 191 100.5t110 46.5v168q0 145 -11 171t-18 42q-22 50 -106 50t-108.5 -70.5t-24.5 -268.5v-37h-150v40zM580 837q-165 -75 -190.5 -94t-45.5 -39q-52 -52 -52 -195
v-119q0 -155 24 -216t86 -61t110 31t68 67v626z" />
    <glyph glyph-name="uni0204" unicode="&#x204;" horiz-adv-x="709" 
d="M298 2172l131 97l151 -325l-67 -47zM-5 2172l135 97l188 -325l-67 -47zM160 1760h465v-116h-316v-688h297v-121h-297v-717h313v-118h-462v1760z" />
    <glyph glyph-name="uni0205" unicode="&#x205;" 
d="M322 1912l131 97l151 -325l-67 -47zM19 1912l135 97l188 -325l-67 -47zM549 877v201q0 169 -13 221q-22 88 -110 88q-118 0 -140 -155q-9 -63 -9 -154v-18v-183h272zM128 1014q0 262 48 360q50 98 134 127q50 17 115.5 17t113.5 -16q73 -24 123 -131q36 -75 36 -369v-250
h-421v-302q0 -232 34.5 -284.5t102 -52.5t95 42t34 108.5t6.5 180.5v112h145v-49q0 -222 -15 -304q-38 -221 -247 -221q-182 0 -242 112q-41 74 -51.5 169t-10.5 248v503z" />
    <glyph glyph-name="uni0206" unicode="&#x206;" horiz-adv-x="709" 
d="M160 1760h465v-116h-316v-688h297v-121h-297v-717h313v-118h-462v1760zM197 1856v20q0 83 47 137t140.5 54t143 -47.5t51.5 -135.5v-15l-64 -3q-2 109 -129 109q-125 0 -125 -112v-4z" />
    <glyph glyph-name="uni0207" unicode="&#x207;" 
d="M227 1596v20q0 83 47 137t140.5 54t143 -47.5t51.5 -135.5v-15l-64 -3q-2 109 -129 109q-125 0 -125 -112v-4zM549 877v201q0 169 -13 221q-22 88 -110 88q-118 0 -140 -155q-9 -63 -9 -154v-18v-183h272zM128 1014q0 262 48 360q50 98 134 127q50 17 115.5 17t113.5 -16
q73 -24 123 -131q36 -75 36 -369v-250h-421v-302q0 -232 34.5 -284.5t102 -52.5t95 42t34 108.5t6.5 180.5v112h145v-49q0 -222 -15 -304q-38 -221 -247 -221q-182 0 -242 112q-41 74 -51.5 169t-10.5 248v503z" />
    <glyph glyph-name="uni0208" unicode="&#x208;" horiz-adv-x="504" 
d="M152 2172l131 97l151 -325l-67 -47zM-151 2172l135 97l188 -325l-67 -47zM178 1760h149v-1760h-149v1760z" />
    <glyph glyph-name="uni0209" unicode="&#x209;" horiz-adv-x="474" 
d="M153 1915l131 97l151 -325l-67 -47zM-150 1915l135 97l188 -325l-67 -47zM162 1500h150v-1500h-150v1500z" />
    <glyph glyph-name="uni020A" unicode="&#x20a;" horiz-adv-x="504" 
d="M57 1856v20q0 83 47 137t140.5 54t143 -47.5t51.5 -135.5v-15l-64 -3q-2 109 -129 109q-125 0 -125 -112v-4zM178 1760h149v-1760h-149v1760z" />
    <glyph glyph-name="uni020B" unicode="&#x20b;" horiz-adv-x="474" 
d="M46 1640v20q0 83 47 137t140.5 54t143 -47.5t51.5 -135.5v-15l-64 -3q-2 109 -129 109q-125 0 -125 -112v-4zM162 1500h150v-1500h-150v1500z" />
    <glyph glyph-name="uni020C" unicode="&#x20c;" horiz-adv-x="887" 
d="M344 2171l131 97l151 -325l-67 -47zM41 2171l135 97l188 -325l-67 -47zM604 1280q0 210 -30.5 295t-124.5 85t-130 -87.5t-36 -291.5v-762q0 -243 25 -311t55.5 -87t80.5 -19t80 19t55 86.5t25 311.5v761zM134 1268q0 319 80 416.5t246 97.5t229 -108q42 -73 53 -170
t11 -236v-749q0 -229 -27.5 -322.5t-61.5 -133.5q-72 -83 -219 -83q-219 0 -274 189q-37 124 -37 350v749z" />
    <glyph glyph-name="uni020D" unicode="&#x20d;" horiz-adv-x="845" 
d="M323 1912l131 97l151 -325l-67 -47zM20 1912l135 97l188 -325l-67 -47zM568 1053q0 258 -68 311q-30 23 -72 23q-114 0 -136 -127q-15 -79 -15 -207v-590q0 -221 37.5 -285.5t119.5 -64.5t108 91.5t26 258.5v590zM128 1018q0 260 49 358t133 126q50 16 112 16
q253 0 284 -275q11 -94 11 -225v-503q0 -177 -7.5 -229t-14.5 -90q-40 -214 -278 -214q-97 0 -155 40q-110 76 -127 279q-7 90 -7 214v503z" />
    <glyph glyph-name="uni020E" unicode="&#x20e;" horiz-adv-x="887" 
d="M604 1280q0 210 -30.5 295t-124.5 85t-130 -87.5t-36 -291.5v-762q0 -243 25 -311t55.5 -87t80.5 -19t80 19t55 86.5t25 311.5v761zM134 1268q0 319 80 416.5t246 97.5t229 -108q42 -73 53 -170t11 -236v-749q0 -229 -27.5 -322.5t-61.5 -133.5q-72 -83 -219 -83
q-219 0 -274 189q-37 124 -37 350v749zM246 1855v20q0 83 47 137t140.5 54t143 -47.5t51.5 -135.5v-15l-64 -3q-2 109 -129 109q-125 0 -125 -112v-4z" />
    <glyph glyph-name="uni020F" unicode="&#x20f;" horiz-adv-x="845" 
d="M228 1596v20q0 83 47 137t140.5 54t143 -47.5t51.5 -135.5v-15l-64 -3q-2 109 -129 109q-125 0 -125 -112v-4zM568 1053q0 258 -68 311q-30 23 -72 23q-114 0 -136 -127q-15 -79 -15 -207v-590q0 -221 37.5 -285.5t119.5 -64.5t108 91.5t26 258.5v590zM128 1018
q0 260 49 358t133 126q50 16 112 16q253 0 284 -275q11 -94 11 -225v-503q0 -177 -7.5 -229t-14.5 -90q-40 -214 -278 -214q-97 0 -155 40q-110 76 -127 279q-7 90 -7 214v503z" />
    <glyph glyph-name="uni0210" unicode="&#x210;" horiz-adv-x="903" 
d="M362 2172l131 97l151 -325l-67 -47zM59 2172l135 97l188 -325l-67 -47zM623 1335q0 133 -12.5 195t-42 84t-93.5 22h-167v-668h156q76 0 103.5 26t41.5 86.5t14 241.5v13zM160 1760h299q181 0 242 -76q46 -57 58.5 -139.5t12.5 -239.5t-36.5 -256.5t-125.5 -123.5
q35 -6 59 -21.5t43 -52.5q59 -115 59 -566q0 -187 3.5 -215.5t18.5 -69.5h-148q-16 30 -19 113.5t-3 266.5v194q0 184 -22.5 234t-133.5 50l-158 10v-868h-149v1760z" />
    <glyph glyph-name="uni0211" unicode="&#x211;" horiz-adv-x="617" 
d="M234 1912l131 97l151 -325l-67 -47zM-69 1912l135 97l188 -325l-67 -47zM565 1518q4 0 4 -32t-1 -64v-31q-79 0 -139.5 -31.5t-118.5 -113.5v-1246h-149v1500h149v-167q26 88 91.5 136.5t163.5 48.5z" />
    <glyph glyph-name="uni0212" unicode="&#x212;" horiz-adv-x="903" 
d="M623 1335q0 133 -12.5 195t-42 84t-93.5 22h-167v-668h156q76 0 103.5 26t41.5 86.5t14 241.5v13zM160 1760h299q181 0 242 -76q46 -57 58.5 -139.5t12.5 -239.5t-36.5 -256.5t-125.5 -123.5q35 -6 59 -21.5t43 -52.5q59 -115 59 -566q0 -187 3.5 -215.5t18.5 -69.5h-148
q-16 30 -19 113.5t-3 266.5v194q0 184 -22.5 234t-133.5 50l-158 10v-868h-149v1760zM263 1856v20q0 83 47 137t140.5 54t143 -47.5t51.5 -135.5v-15l-64 -3q-2 109 -129 109q-125 0 -125 -112v-4z" />
    <glyph glyph-name="uni0213" unicode="&#x213;" horiz-adv-x="617" 
d="M174 1640v20q0 83 47 137t140.5 54t143 -47.5t51.5 -135.5v-15l-64 -3q-2 109 -129 109q-125 0 -125 -112v-4zM565 1518q4 0 4 -32t-1 -64v-31q-79 0 -139.5 -31.5t-118.5 -113.5v-1246h-149v1500h149v-167q26 88 91.5 136.5t163.5 48.5z" />
    <glyph glyph-name="uni0214" unicode="&#x214;" horiz-adv-x="911" 
d="M355 2173l131 97l151 -325l-67 -47zM52 2173l135 97l188 -325l-67 -47zM616 1760h149v-1308q0 -248 -63 -360.5t-245 -112.5t-246.5 113t-64.5 360v1308h149v-1303q0 -183 16 -244q30 -111 140 -111q90 0 127.5 51.5t37.5 302.5v1304z" />
    <glyph glyph-name="uni0215" unicode="&#x215;" horiz-adv-x="924" 
d="M383 1912l131 97l151 -325l-67 -47zM80 1912l135 97l188 -325l-67 -47zM300 292q0 -173 152 -173q74 0 118.5 49.5t44.5 134.5l-1 1197h150v-1500h-149v150q-19 -68 -81.5 -119t-144.5 -51t-160 67.5t-78 237.5v1215h149v-1208z" />
    <glyph glyph-name="uni0216" unicode="&#x216;" horiz-adv-x="911" 
d="M616 1760h149v-1308q0 -248 -63 -360.5t-245 -112.5t-246.5 113t-64.5 360v1308h149v-1303q0 -183 16 -244q30 -111 140 -111q90 0 127.5 51.5t37.5 302.5v1304zM271 1857v20q0 83 47 137t140.5 54t143 -47.5t51.5 -135.5v-15l-64 -3q-2 109 -129 109q-125 0 -125 -112
v-4z" />
    <glyph glyph-name="uni0217" unicode="&#x217;" horiz-adv-x="924" 
d="M267 1640v20q0 83 47 137t140.5 54t143 -47.5t51.5 -135.5v-15l-64 -3q-2 109 -129 109q-125 0 -125 -112v-4zM300 292q0 -173 152 -173q74 0 118.5 49.5t44.5 134.5l-1 1197h150v-1500h-149v150q-19 -68 -81.5 -119t-144.5 -51t-160 67.5t-78 237.5v1215h149v-1208z" />
    <glyph glyph-name="Scommaaccent" unicode="&#x218;" horiz-adv-x="795" 
d="M309 -147h197v-183l-78 -282h-62l43 273h-100v192zM98 1490q15 143 84.5 217.5t217.5 74.5t206 -74q32 -40 50 -80q38 -81 39 -386v-99h-153v110q0 232 -15 281t-31 74q-29 46 -104 46q-152 0 -152 -283q0 -99 19 -134.5t28.5 -55.5t127.5 -138l96 -97
q213 -219 213 -502.5t-81.5 -373.5t-241.5 -90q-246 0 -283 297q-13 100 -13 246v183h152v-180q0 -238 31.5 -328t128.5 -90t123.5 58.5t29 141.5t2.5 178q0 196 -155 347l-102 97q-134 131 -179 220.5t-45 182t7 157.5z" />
    <glyph glyph-name="scommaaccent" unicode="&#x219;" 
d="M319 -147h197v-183l-78 -282h-62l43 273h-100v192zM120 1180q0 166 79.5 252t219.5 86t205 -111t65 -370v-80h-155v107q0 159 -27.5 238t-96 79t-104 -45.5t-35.5 -157.5v-6q0 -175 163 -333l77 -75q199 -199 199 -439q0 -160 -69 -252.5t-217 -92.5t-221.5 102
t-73.5 325v129h153v-103q0 -317 138 -317q74 0 105 48t31 170q0 181 -156 340l-79 80q-201 204 -201 426z" />
    <glyph glyph-name="uni021A" unicode="&#x21a;" horiz-adv-x="577" 
d="M201 -147h197v-183l-78 -282h-62l43 273h-100v192zM40 1760h497v-116h-165v-1644h-148v1644h-184v116z" />
    <glyph glyph-name="uni021B" unicode="&#x21b;" horiz-adv-x="582" 
d="M312 -147h197v-183l-78 -282h-62l43 273h-100v192zM195 1760h150v-254h177v-116h-177v-1181q0 -45 11 -62t41 -23t124 -6v-127h-104q-142 0 -183 50q-24 29 -31.5 68.5t-7.5 107.5v1173h-150v116h150v254z" />
    <glyph glyph-name="uni0237" unicode="&#x237;" horiz-adv-x="513" 
d="M352 34q0 -191 -170 -191q-30 0 -66 5l-21 2v108q5 0 30.5 -2t40.5 1q37 6 37 67v1476h149v-1466z" />
    <glyph glyph-name="circumflex" unicode="&#x2c6;" horiz-adv-x="970" 
d="M402 1831h166l120 -254h-117l-86 175l-86 -175h-118z" />
    <glyph glyph-name="caron" unicode="&#x2c7;" horiz-adv-x="970" 
d="M571 1830h117l-120 -253h-166l-121 253h118l86 -175z" />
    <glyph glyph-name="uni02C9" unicode="&#x2c9;" horiz-adv-x="696" 
d="M90 741h516v-115h-516v115z" />
    <glyph glyph-name="breve" unicode="&#x2d8;" horiz-adv-x="1016" 
d="M632 1823h64v-13q0 -88 -48.5 -139.5t-141.5 -51.5t-142 50.5t-49 138.5v15h64q1 -113 127 -113t126 113z" />
    <glyph glyph-name="dotaccent" unicode="&#x2d9;" horiz-adv-x="572" 
d="M213 78h159v-133h-159v133z" />
    <glyph glyph-name="ring" unicode="&#x2da;" horiz-adv-x="923" 
d="M561 72q0 42 -26.5 72t-72.5 30t-72 -30.5t-26 -71.5t26 -71.5t72 -30.5t72.5 30t26.5 72zM336.5 -35q-44.5 46 -44.5 106.5t44.5 106.5t125 46t124.5 -46t44 -107t-44 -106.5t-124.5 -45.5t-125 46z" />
    <glyph glyph-name="ogonek" unicode="&#x2db;" horiz-adv-x="1015" 
d="M812 -411q-44 -20 -128 -20q-193 0 -193 145q0 70 44 145t132 141h64q-73 -62 -109.5 -129.5t-36.5 -122.5q0 -87 108 -87q52 0 85 10t34 11v-93z" />
    <glyph glyph-name="tilde" unicode="&#x2dc;" horiz-adv-x="1117" 
d="M266 35q28 97 70.5 116t92 19t142 -37t113.5 -37h4q17 3 29.5 16.5t26.5 54.5l105 -28l-9 -26q-29 -91 -58.5 -118t-78.5 -27t-139 41t-118.5 41t-44.5 -4t-42 -57z" />
    <glyph glyph-name="hungarumlaut" unicode="&#x2dd;" horiz-adv-x="1300" 
d="M452 40l107 391l164 -78l-202 -342zM703 40l164 391l167 -89l-263 -342z" />
    <glyph glyph-name="uni0307" unicode="&#x307;" horiz-adv-x="572" 
d="M147 260h278v-268h-278v268z" />
    <glyph glyph-name="uni030F" unicode="&#x30f;" horiz-adv-x="825" 
d="M312 1912l131 97l151 -325l-67 -47zM9 1912l135 97l188 -325l-67 -47z" />
    <glyph glyph-name="uni0311" unicode="&#x311;" horiz-adv-x="1016" 
d="M313 1596v20q0 83 47 137t140.5 54t143 -47.5t51.5 -135.5v-15l-64 -3q-2 109 -129 109q-125 0 -125 -112v-4z" />
    <glyph glyph-name="uni0326" unicode="&#x326;" horiz-adv-x="528" 
d="M168 242h197v-183l-78 -282h-62l43 273h-100v192z" />
    <glyph glyph-name="uni0394" unicode="&#x394;" horiz-adv-x="868" 
d="M219 123h425l-220 1353h-2zM495 1760l313 -1760h-748l283 1760h152z" />
    <glyph glyph-name="uni03BC" unicode="&#x3bc;" horiz-adv-x="923" 
d="M300 292q0 -173 152 -173q74 0 118 49t44 131v4v1197h150v-1500h-149v150q-19 -68 -81.5 -119t-127.5 -51t-106 19v-185h-150v1686h150v-1208z" />
    <glyph glyph-name="uni1E02" unicode="&#x1e02;" horiz-adv-x="885" 
d="M395 2014h159v-133h-159v133zM421 1629h-112v-625h134q69 0 92.5 15t32.5 35q28 63 28 247.5t-18.5 234.5t-49.5 71.5t-107 21.5zM470 884h-161v-756h158q73 0 107 48t40 150t6 174v83q0 148 -30.5 224.5t-119.5 76.5zM160 1760h257q158 0 229.5 -54t89.5 -190
q8 -60 9 -150v-23q0 -171 -22 -261t-91 -135q78 -38 107.5 -149.5t29.5 -279.5v-31q-4 -257 -66 -372t-241 -115h-302v1760z" />
    <glyph glyph-name="uni1E03" unicode="&#x1e03;" horiz-adv-x="876" 
d="M410 1988h159v-133h-159v133zM597 1061q0 176 -15 219.5t-29 64.5q-27 41 -72 41t-67 -6q-54 -15 -79.5 -85.5t-25.5 -235.5v-599q0 -189 30.5 -267t115.5 -78t113.5 78.5t28.5 272.5v595zM160 1783h149v-411q11 60 64 103.5t115 43.5q179 0 228 -194q30 -124 30 -313
v-522q0 -257 -39 -356.5t-107 -127.5q-38 -16 -90 -17q-147 0 -201 125v-114h-149v1783z" />
    <glyph glyph-name="uni1E0A" unicode="&#x1e0a;" horiz-adv-x="903" 
d="M367 1988h159v-133h-159v133zM621 1274q0 192 -44 277t-138 85h-132v-1508h123q124 0 162 113q30 93 30 278zM159 1760h271q237 0 302 -194q38 -113 38 -308l1 -754q0 -275 -78 -389.5t-269 -114.5h-265v1760z" />
    <glyph glyph-name="uni1E0B" unicode="&#x1e0b;" horiz-adv-x="872" 
d="M313 1988h159v-133h-159v133zM567 1037q0 193 -29.5 270.5t-114.5 77.5t-114 -79.5t-29 -275.5v-594q0 -206 32.5 -264t96.5 -58t91.5 23.5t47 79t19.5 217.5v603zM566 1783h150v-1783h-150v114q-52 -125 -199 -125q-167 1 -212 199q-25 109 -25 293v527q0 302 72.5 406
t204.5 104q51 0 94.5 -36.5t64.5 -88.5v390z" />
    <glyph glyph-name="uni1E1E" unicode="&#x1e1e;" horiz-adv-x="690" 
d="M319 1988h159v-133h-159v133zM160 1760h462v-116h-314v-639h297v-119h-297v-886h-148v1760z" />
    <glyph glyph-name="uni1E1F" unicode="&#x1e1f;" horiz-adv-x="610" 
d="M320 1988h159v-133h-159v133zM224 1512q0 138 49 207.5t165 69.5q81 0 135 -18v-121q-45 7 -101 7t-77 -29.5t-21 -93.5v-92h199v-113h-199v-1329h-150v1329h-140v113h140v70z" />
    <glyph glyph-name="uni1E40" unicode="&#x1e40;" horiz-adv-x="1198" 
d="M531 1988h159v-133h-159v133zM871 1760h167v-1760h-135v754l23 709l-251 -1425h-142l-260 1425l23 -709v-754h-136v1760h167l277 -1478z" />
    <glyph glyph-name="uni1E41" unicode="&#x1e41;" horiz-adv-x="1362" 
d="M657 1728h159v-133h-159v133zM1062 1226q0 155 -137 155q-115 0 -147 -67q-14 -30 -18 -75v-1239h-149v1226q0 86 -35.5 120.5t-108 34.5t-115.5 -43.5t-43 -128.5v-1209h-149v1500h149v-149q20 68 83.5 118t145.5 50q150 0 201 -152q37 68 105 110t158 42t150 -75
t60 -227v-1217h-150v1226z" />
    <glyph glyph-name="uni1E56" unicode="&#x1e56;" horiz-adv-x="843" 
d="M375 1988h159v-133h-159v133zM622 1229v47q0 194 -29.5 277t-118.5 83h-165v-821h158q92 0 123.5 87.5t31.5 326.5zM160 1760h306q108 0 170.5 -40.5t83.5 -90.5q36 -90 43.5 -175t7.5 -205v-18q0 -229 -28.5 -323t-64.5 -135q-73 -84 -221 -84h-148v-689h-149v1760z" />
    <glyph glyph-name="uni1E57" unicode="&#x1e57;" horiz-adv-x="873" 
d="M374 1728h159v-133h-159v133zM596 1061q0 176 -14.5 219.5t-34.5 74.5t-66 31t-68 -6q-54 -15 -79 -86.5t-25 -234.5v-596q0 -191 30.5 -269.5t115.5 -78.5t113 78t28 275v593zM309 1385q53 126 199 126q102 0 153.5 -67.5t67.5 -174t16 -256.5v-538v-7
q0 -283 -74 -384.5t-202 -101.5q-51 0 -95.5 36.5t-64.5 89.5v-373h-149v1765h149v-115z" />
    <glyph glyph-name="uni1E60" unicode="&#x1e60;" horiz-adv-x="795" 
d="M321 1988h159v-133h-159v133zM98 1490q15 143 84.5 217.5t217.5 74.5t206 -74q32 -40 50 -80q38 -81 39 -386v-99h-153v110q0 232 -15 281t-31 74q-29 46 -104 46q-152 0 -152 -283q0 -99 19 -134.5t28.5 -55.5t127.5 -138l96 -97q213 -219 213 -502.5t-81.5 -373.5
t-241.5 -90q-246 0 -283 297q-13 100 -13 246v183h152v-180q0 -238 31.5 -328t128.5 -90t123.5 58.5t29 141.5t2.5 178q0 196 -155 347l-102 97q-134 131 -179 220.5t-45 182t7 157.5z" />
    <glyph glyph-name="uni1E61" unicode="&#x1e61;" 
d="M353 1728h159v-133h-159v133zM120 1180q0 166 79.5 252t219.5 86t205 -111t65 -370v-80h-155v107q0 159 -27.5 238t-96 79t-104 -45.5t-35.5 -157.5v-6q0 -175 163 -333l77 -75q199 -199 199 -439q0 -160 -69 -252.5t-217 -92.5t-221.5 102t-73.5 325v129h153v-103
q0 -317 138 -317q74 0 105 48t31 170q0 181 -156 340l-79 80q-201 204 -201 426z" />
    <glyph glyph-name="uni1E6A" unicode="&#x1e6a;" horiz-adv-x="577" 
d="M216 1988h159v-133h-159v133zM40 1760h497v-116h-165v-1644h-148v1644h-184v116z" />
    <glyph glyph-name="uni1E6B" unicode="&#x1e6b;" horiz-adv-x="582" 
d="M185 1988h159v-133h-159v133zM195 1760h150v-254h177v-116h-177v-1181q0 -45 11 -62t41 -23t124 -6v-127h-104q-142 0 -183 50q-24 29 -31.5 68.5t-7.5 107.5v1173h-150v116h150v254z" />
    <glyph glyph-name="Wgrave" unicode="&#x1e80;" horiz-adv-x="1338" 
d="M517 1924v160l332 -185v-69zM1127 1760h141l-213 -1760h-147l-218 1448l-234 -1448h-137l-249 1760h146l184 -1438l220 1438h124l235 -1438z" />
    <glyph glyph-name="wgrave" unicode="&#x1e81;" horiz-adv-x="1075" 
d="M385 1664v160l332 -185v-69zM885 1500h132l-174 -1500h-148l-147 1283l-173 -1283h-142l-176 1500h137l90 -887l24 -311h12l30 312l126 886h127l137 -854l40 -344h10l20 346z" />
    <glyph glyph-name="Wacute" unicode="&#x1e82;" horiz-adv-x="1338" 
d="M1127 1760h141l-213 -1760h-147l-218 1448l-234 -1448h-137l-249 1760h146l184 -1438l220 1438h124l235 -1438zM518 1963l398 158v-144l-398 -83v69z" />
    <glyph glyph-name="wacute" unicode="&#x1e83;" horiz-adv-x="1075" 
d="M885 1500h132l-174 -1500h-148l-147 1283l-173 -1283h-142l-176 1500h137l90 -887l24 -311h12l30 312l126 886h127l137 -854l40 -344h10l20 346zM373 1703l398 158v-144l-398 -83v69z" />
    <glyph glyph-name="Wdieresis" unicode="&#x1e84;" horiz-adv-x="1338" 
d="M1127 1760h141l-213 -1760h-147l-218 1448l-234 -1448h-137l-249 1760h146l184 -1438l220 1438h124l235 -1438zM359 2005h182v-133h-182v133zM789 2005h182v-133h-182v133z" />
    <glyph glyph-name="wdieresis" unicode="&#x1e85;" horiz-adv-x="1075" 
d="M885 1500h132l-174 -1500h-148l-147 1283l-173 -1283h-142l-176 1500h137l90 -887l24 -311h12l30 312l126 886h127l137 -854l40 -344h10l20 346zM214 1745h182v-133h-182v133zM644 1745h182v-133h-182v133z" />
    <glyph glyph-name="Ygrave" unicode="&#x1ef2;" horiz-adv-x="802" 
d="M247 1924v160l332 -185v-69zM624 1760h154l-287 -987v-773h-149v772l-318 988h150l241 -778h3z" />
    <glyph glyph-name="ygrave" unicode="&#x1ef3;" horiz-adv-x="733" 
d="M215 1664v160l332 -185v-69zM541 1500h149l-239 -1497q-23 -154 -53 -191t-67.5 -43.5t-76.5 -6.5h-124v128h55q107 0 123 11q14 14 14 40t-3 44t-8 53l-250 1462h150l119 -793l48 -408h13l43 408z" />
    <glyph glyph-name="endash" unicode="&#x2013;" horiz-adv-x="756" 
d="M120 741h516v-115h-516v115z" />
    <glyph glyph-name="emdash" unicode="&#x2014;" horiz-adv-x="1153" 
d="M100 741h952v-115h-952v115z" />
    <glyph glyph-name="quoteleft" unicode="&#x2018;" horiz-adv-x="597" 
d="M281 1783h106l-91 -417h142v-202h-271v193z" />
    <glyph glyph-name="quoteright" unicode="&#x2019;" horiz-adv-x="597" 
d="M189 1783h271v-193l-114 -426h-106l91 417h-142v202z" />
    <glyph glyph-name="quotesinglbase" unicode="&#x201a;" horiz-adv-x="484" 
d="M113 207h275v-198l-119 -446h-103l93 437h-146v207z" />
    <glyph glyph-name="quotedblleft" unicode="&#x201c;" horiz-adv-x="1030" 
d="M295 1783h104l-94 -428h146v-206h-275v197zM742 1783h103l-93 -428h146v-206h-275v197z" />
    <glyph glyph-name="quotedblright" unicode="&#x201d;" horiz-adv-x="1077" 
d="M191 1783h275v-197l-120 -437h-103l94 428h-146v206zM638 1783h275v-197l-120 -437h-103l93 428h-145v206z" />
    <glyph glyph-name="quotedblbase" unicode="&#x201e;" horiz-adv-x="1016" 
d="M181 206h275v-197l-120 -437h-103l94 428h-146v206zM628 206h275v-197l-120 -437h-103l94 428h-146v206z" />
    <glyph glyph-name="dagger" unicode="&#x2020;" horiz-adv-x="909" 
d="M382 1592h148v-410h288v-116h-288v-1066h-148v1066h-291v116h291v410z" />
    <glyph glyph-name="daggerdbl" unicode="&#x2021;" horiz-adv-x="927" 
d="M818 1066h-288v-454h288v-116h-288v-496h-148v496h-291v116h291v454h-291v116h291v410h148v-410h288v-116z" />
    <glyph glyph-name="bullet" unicode="&#x2022;" horiz-adv-x="861" 
d="M227 741v2q0 226 203 226q204 0 204 -228t-204 -228q-203 0 -203 226v2z" />
    <glyph glyph-name="perthousand" unicode="&#x2030;" horiz-adv-x="3206" 
d="M2653 835q0 123 -28.5 166.5t-108 43.5t-108.5 -43.5t-29 -166.5v-500q0 -128 28.5 -173t108.5 -45t108.5 45t28.5 173v500zM2232 763q0 293 88 365q64 52 196 52t196 -52q88 -73 88 -365v-352q0 -131 -12.5 -211.5t-46 -131t-86.5 -69.5t-139 -19t-139 19t-86.5 69.5
t-46 131t-12.5 211.5v352zM1845 835q0 123 -29 166.5t-108.5 43.5t-108 -43.5t-28.5 -166.5v-500q0 -128 28.5 -173t108.5 -45t108.5 45t28.5 173v500zM1424 763q0 293 88 365q64 52 196 52t196 -52q88 -73 88 -365v-352q0 -131 -12.5 -211.5t-46 -131t-86.5 -69.5t-139 -19
t-139 19t-86.5 69.5t-46 131t-12.5 211.5v352zM180 1364q0 294 88 366q64 52 195.5 52t196.5 -52q89 -72 89 -366v-352q0 -131 -12.5 -211.5t-46.5 -131t-86.5 -69.5t-139 -19t-139.5 19t-86.5 69.5t-46 131t-12.5 211.5v352zM601 1436q0 123 -28.5 166.5t-108 43.5
t-108.5 -43.5t-29 -166.5v-500q0 -128 28.5 -173t108.5 -45t108.5 45t28.5 173v500zM1372 1760h140l-722 -1760h-148z" />
    <glyph glyph-name="guilsinglleft" unicode="&#x2039;" horiz-adv-x="606" 
d="M82 794l466 271v-150l-312 -166l312 -175v-160l-466 285v95z" />
    <glyph glyph-name="guilsinglright" unicode="&#x203a;" horiz-adv-x="727" 
d="M166 915v150l466 -271v-95l-466 -285v160l312 175z" />
    <glyph glyph-name="fraction" unicode="&#x2044;" horiz-adv-x="829" 
d="M536 1768h137l-442 -1768h-137z" />
    <glyph glyph-name="uni2074" unicode="&#x2074;" horiz-adv-x="857" 
d="M489 873v660l-179 -660h179zM495 1760h85v-887h108v-78h-108v-241h-91v241h-265v67z" />
    <glyph glyph-name="Euro" unicode="&#x20ac;" horiz-adv-x="1076" 
d="M134 1251q0 320 80.5 425.5t229 105.5t212.5 -73q46 -53 60 -105q33 -122 33 -365v-152h-151v170q0 222 -24 297t-68 95q-24 11 -55 11q-95 0 -131.5 -97t-36.5 -305v-182h225v-90h-225v-137h225v-98h-225v-199q0 -255 32 -352.5t128 -97.5t125.5 97t29.5 352v141h150
v-140q0 -231 -26 -332.5t-59 -145.5q-70 -94 -217 -94t-221 93q-91 114 -91 477v201h-111v98h111v137h-111v90h111v175z" />
    <glyph glyph-name="trademark" unicode="&#x2122;" horiz-adv-x="1407" 
d="M123 1761h369v-87h-123v-1227h-109v1227h-137v87zM1143 1761h131v-1314h-95v558l16 520l-182 -1078h-114l-189 1078l17 -520v-558h-96v1314h132l193 -1199z" />
    <glyph glyph-name="partialdiff" unicode="&#x2202;" horiz-adv-x="961" 
d="M687 919q-106 41 -163.5 41t-113.5 -48t-90 -125q-74 -164 -74 -352.5t74 -272.5q38 -45 102 -45t125 79t79 223zM368 1055q70 38 144.5 38t196.5 -46q12 152 12 249t-43 173t-162 76t-291 -60l-24 122q207 66 341 66q174 0 250.5 -109t76.5 -337q0 -123 -22 -302
l-64 -508q-26 -216 -131 -325t-231 -109q-198 0 -287 194q-52 114 -52 236.5t19 215t56.5 176t89 148t121.5 102.5z" />
    <glyph glyph-name="product" unicode="&#x220f;" horiz-adv-x="933" 
d="M155 1760h623v-1760h-150v1649h-323v-1649h-150v1760z" />
    <glyph glyph-name="summation" unicode="&#x2211;" horiz-adv-x="681" 
d="M102 1761h451v-130h-288l240 -751l-240 -735h288v-145h-451v141l235 740l-235 724v156z" />
    <glyph glyph-name="minus" unicode="&#x2212;" horiz-adv-x="637" 
d="M20 741h596v-115h-596v115z" />
    <glyph glyph-name="uni2215" unicode="&#x2215;" horiz-adv-x="829" 
d="M536 1768h137l-442 -1768h-137z" />
    <glyph glyph-name="radical" unicode="&#x221a;" horiz-adv-x="1152" 
d="M669 1500h453v-133h-314l-274 -1367h-154l-291 741h169l184 -523z" />
    <glyph glyph-name="infinity" unicode="&#x221e;" horiz-adv-x="1300" 
d="M1074 740q0 73 -45 117.5t-108 44.5t-125.5 -44.5t-112.5 -117.5q46 -73 108.5 -117.5t127.5 -44.5t110 44.5t45 117.5zM588 740q-134 140 -224 161q-60 0 -103 -44t-43 -117t43 -117.5t103 -44.5t119 44.5t105 117.5zM639 855q67 84 142 135t131 51q130 0 210 -81.5
t80 -217.5t-80 -219.5t-210 -83.5q-61 0 -136 48.5t-137 127.5q-65 -74 -139 -118.5t-130 -44.5q-127 0 -204.5 80t-77.5 210t77.5 208t204.5 78q52 0 125.5 -47.5t143.5 -125.5z" />
    <glyph glyph-name="integral" unicode="&#x222b;" horiz-adv-x="767" 
d="M316 1539q0 248 180 248q62 0 156 -35v-122q-77 24 -119 24t-61 -31t-19 -102v-1300q0 -233 -201 -233q-58 0 -137 20v122q40 -2 55 -2q94 0 120 33t26 144v1234z" />
    <glyph glyph-name="approxequal" unicode="&#x2248;" horiz-adv-x="1117" 
d="M989 718q-62 -245 -206 -245q0 -5 -25 -5t-188 42.5t-216.5 42.5t-93.5 -93l-128 75q79 186 214 186q57 0 215 -39.5t185 -39.5q67 7 100 118zM989 1120q-62 -245 -206 -245q-68 0 -222 40t-207.5 40t-93.5 -93l-128 75q78 186 214 186q57 0 215 -39.5t185 -39.5
q67 9 100 118z" />
    <glyph glyph-name="notequal" unicode="&#x2260;" horiz-adv-x="884" 
d="M124 733h514v-132h-514v132zM124 1025h514v-133h-514v133zM538 1768h135l-451 -1768h-134z" />
    <glyph glyph-name="lessequal" unicode="&#x2264;" horiz-adv-x="781" 
d="M93 111h549v-111h-549v111zM59 813l579 396v-167l-467 -293l467 -310v-160l-579 400v134z" />
    <glyph glyph-name="greaterequal" unicode="&#x2265;" horiz-adv-x="781" 
d="M92 111h549v-111h-549v111zM100 1042v167l579 -396v-134l-579 -400v160l467 310z" />
    <glyph glyph-name="lozenge" unicode="&#x25ca;" horiz-adv-x="921" 
d="M659 883l-194 740h-12l-194 -740l194 -754h12zM367 1762h191l249 -879l-249 -883h-191l-253 883z" />
    <glyph glyph-name="uniF8FF" unicode="&#xf8ff;" horiz-adv-x="327" 
 />
    <glyph glyph-name="ff" unicode="&#xfb00;" horiz-adv-x="1220" 
d="M834 1442v70q0 138 49 207.5t165 69.5q81 0 135 -18v-121q-45 7 -101 7t-77 -29.5t-21 -93.5v-92h199v-113h-199v-1329h-150v1329h-460v-1329h-150v1329h-140v113h140v70q0 138 49 207.5t165 69.5q81 0 135 -18v-121q-45 7 -101 7t-77 -29.5t-21 -93.5v-92h460z" />
    <glyph glyph-name="uniFB01" unicode="&#xfb01;" horiz-adv-x="1084" 
d="M922 0h-150v1388h-398v-1388h-150v1388h-140v113h140v17q0 138 49 207.5t165 69.5q81 0 135 -18v-121q-45 7 -101 7t-77 -29.5t-21 -93.5v-40h548v-1500zM922 1615h-150v185h150v-185z" />
    <glyph glyph-name="uniFB02" unicode="&#xfb02;" horiz-adv-x="1080" 
d="M920 1744v-1744h-150v1660q-132 31 -202 31t-118 -15t-62 -52t-14 -83v-99h199v-113h-199v-1329h-150v1329h-140v113h140v70q0 184 71.5 241.5t216 57.5t408.5 -67z" />
    <glyph glyph-name="ffi" unicode="&#xfb03;" horiz-adv-x="1694" 
d="M984 1500h548v-1500h-150v1387h-398v-1387h-150v1387h-460v-1387h-150v1387h-140v113h140v19q0 138 49 207.5t165 69.5q81 0 135 -18v-121q-45 7 -101 7t-77 -29.5t-21 -93.5v-41h460v19q0 138 49 207.5t165 69.5q81 0 135 -18v-121q-45 7 -101 7t-77 -29.5t-21 -93.5
v-41zM1382 1800h150v-185h-150v185z" />
    <glyph glyph-name="ffl" unicode="&#xfb04;" horiz-adv-x="1635" 
d="M779 1442v70q0 184 71.5 241.5t216 57.5t408.5 -67v-1744h-150v1660q-132 31 -202 31t-118 -15t-62 -52t-14 -83v-99h199v-113h-199v-1329h-150v1329h-405v-1329h-150v1329h-140v113h140v70q0 138 49 207.5t165 69.5q81 0 135 -18v-121q-45 7 -101 7t-77 -29.5t-21 -93.5
v-92h405z" />
    </font>
</defs>
</svg>
